<svg width="18" height="12" viewBox="0 0 18 12" fill="none" xmlns="http://www.w3.org/2000/svg">
    <path d="M0.947369 12H17.0526C17.5758 12 18 11.5758 18 11.0526C18 10.5294 17.5758 10.1053 17.0526 10.1053H0.947369C0.424152 10.1053 0 10.5294 0 11.0526C0 11.5758 0.424152 12 0.947369 12ZM0.947369 6.94737H17.0526C17.5758 6.94737 18 6.52322 18 6C18 5.47678 17.5758 5.05263 17.0526 5.05263H0.947369C0.424152 5.05263 0 5.47678 0 6C0 6.52322 0.424152 6.94737 0.947369 6.94737ZM0 0.947369C0 1.47059 0.424152 1.89474 0.947369 1.89474H17.0526C17.5758 1.89474 18 1.47059 18 0.947369C18 0.424152 17.5758 0 17.0526 0H0.947369C0.424152 0 0 0.424152 0 0.947369Z" fill="white"/>
</svg>
