<svg width="19" height="19" viewBox="0 0 19 19" fill="none" xmlns="http://www.w3.org/2000/svg">
    <path fill-rule="evenodd" clip-rule="evenodd" d="M13.2992 7.75407L13.3 13.52C13.3 14.6688 12.3688 15.6 11.22 15.6L6.71724 15.5991L13.2992 7.75407ZM9.25324 4.79907L2.49924 12.8481L2.50002 6.88003C2.50002 5.73127 3.43127 4.80003 4.58002 4.80003L9.25324 4.79907Z" fill="white"/>
    <rect x="0.5" y="17.6001" width="23" height="2" rx="1" transform="rotate(-50 0.5 17.6001)" fill="white"/>
    <path fill-rule="evenodd" clip-rule="evenodd" d="M14.8469 7.2545L16.777 5.79748C17.306 5.39819 18.0585 5.50331 18.4578 6.03227C18.615 6.24052 18.7 6.49432 18.7 6.75524V12.5348C18.7 13.1976 18.1628 13.7348 17.5 13.7348C17.2391 13.7348 16.9853 13.6498 16.777 13.4926L14.8469 12.0356C14.3261 11.6425 14.02 11.0279 14.02 10.3754V8.91462C14.02 8.2622 14.3261 7.64757 14.8469 7.2545Z" fill="white"/>
</svg>
