<svg width="20" height="20" viewBox="0 0 20 20" fill="none" xmlns="http://www.w3.org/2000/svg">
<path fill-rule="evenodd" clip-rule="evenodd" d="M15.6569 4.34313C16.2426 4.92892 16.2426 5.87867 15.6569 6.46445L12.1213 9.99999L15.6569 13.5355C16.2426 14.1213 16.2426 15.0711 15.6569 15.6568C15.0711 16.2426 14.1213 16.2426 13.5355 15.6568L10 12.1213L6.46447 15.6568C5.87868 16.2426 4.92893 16.2426 4.34315 15.6568C3.75736 15.0711 3.75736 14.1213 4.34315 13.5355L7.87868 9.99999L4.34315 6.46445C3.75736 5.87867 3.75736 4.92892 4.34315 4.34313C4.92893 3.75735 5.87868 3.75735 6.46447 4.34313L10 7.87867L13.5355 4.34313C14.1213 3.75735 15.0711 3.75735 15.6569 4.34313Z" fill="white"/>
</svg>
