<svg width="50" height="50" viewBox="0 0 50 50" fill="none" xmlns="http://www.w3.org/2000/svg">
<path fill-rule="evenodd" clip-rule="evenodd" d="M14.2 48.8C14.4 49 14.8 49 15 49C15.2 49 15.6 49 15.8 48.8L25 45.12L34.2 48.8C34.4 49 34.8 49 35 49C35.2 49 35.6 49 35.8 48.8L45.8 44.8C46.6 44.6 47 43.8 47 43V3C47 2.4 46.6 1.8 46 1.4C45.6 0.999997 44.8 0.999997 44.2 1.2L34.9 4.92L25.9166 1.32665C25.6587 1.12673 25.2821 1.05409 24.9 1.07099C24.5179 1.05409 24.1413 1.12673 23.8834 1.32665L15 4.88L5.8 1.2C5.2 0.799998 4.4 0.999998 3.8 1.4C3.4 1.8 3 2.4 3 3V43C3 43.8 3.4 44.6 4.2 44.8L14.2 48.8ZM23 37.8471V41.6L17 44V35.2477C15.2544 33.883 13.8664 32.082 13 30.0088V44L7 41.6V6L13 8.4V19.9912C13.8664 17.918 15.2544 16.117 17 14.7523V8.4L23 6V12.1529C23.6519 12.0522 24.3199 12 25 12C25.6801 12 26.3481 12.0522 27 12.1529V6L33 8.4V14.7523C34.7456 16.117 36.1336 17.918 37 19.9912V8.4L43 6V41.6L37 44V30.0088C36.1336 32.0821 34.7456 33.883 33 35.2477V44L27 41.6V37.8471C26.3481 37.9478 25.6801 38 25 38C24.3199 38 23.6519 37.9478 23 37.8471Z" fill="white"/>
<path d="M25 18.5833C24.45 18.5833 24.0833 18.2167 24.0833 17.6667V14.9167C24.0833 14.3667 24.45 14 25 14C25.55 14 25.9167 14.3667 25.9167 14.9167V17.6667C25.9167 18.2167 25.55 18.5833 25 18.5833Z" fill="white"/>
<path d="M25 36C24.45 36 24.0833 35.6333 24.0833 35.0833V32.3333C24.0833 31.7833 24.45 31.4167 25 31.4167C25.55 31.4167 25.9167 31.7833 25.9167 32.3333V35.0833C25.9167 35.6333 25.55 36 25 36Z" fill="white"/>
<path d="M17.6667 25.9167H14.9167C14.3667 25.9167 14 25.55 14 25C14 24.45 14.3667 24.0833 14.9167 24.0833H17.6667C18.2167 24.0833 18.5833 24.45 18.5833 25C18.5833 25.55 18.2167 25.9167 17.6667 25.9167Z" fill="white"/>
<path d="M35.0833 25.9167H32.3333C31.7833 25.9167 31.4167 25.55 31.4167 25C31.4167 24.45 31.7833 24.0833 32.3333 24.0833H35.0833C35.6333 24.0833 36 24.45 36 25C36 25.55 35.6333 25.9167 35.0833 25.9167Z" fill="white"/>
<path d="M31.325 22.25C31.05 22.25 30.6833 22.0667 30.5 21.7917C30.225 21.3333 30.4083 20.7833 30.8667 20.5083L33.25 19.1333C33.7083 18.8583 34.2583 19.0417 34.5333 19.5C34.8083 19.9583 34.625 20.5083 34.1667 20.7833L31.7833 22.1583C31.6917 22.25 31.5083 22.25 31.325 22.25Z" fill="white"/>
<path d="M16.2917 30.9583C16.0167 30.9583 15.65 30.775 15.4667 30.5C15.1917 30.0417 15.375 29.4917 15.8333 29.2167L18.2167 27.8417C18.675 27.5667 19.225 27.75 19.5 28.2083C19.775 28.6667 19.5917 29.2167 19.1333 29.4917L16.75 30.8667C16.5667 30.9583 16.3833 30.9583 16.2917 30.9583Z" fill="white"/>
<path d="M28.6667 19.5917C28.4833 19.5917 28.3917 19.5917 28.2083 19.5C27.75 19.225 27.6583 18.675 27.8417 18.2167L29.2167 15.8333C29.4917 15.375 30.0417 15.2833 30.5 15.4667C30.9583 15.7417 31.05 16.2917 30.8667 16.75L29.4917 19.1333C29.3083 19.4083 28.9417 19.5917 28.6667 19.5917Z" fill="white"/>
<path d="M19.9583 34.625C19.775 34.625 19.6833 34.625 19.5 34.5333C19.0417 34.2583 18.95 33.7083 19.1333 33.25L20.5083 30.8667C20.7833 30.5 21.3333 30.3167 21.7917 30.5917C22.25 30.8667 22.3417 31.4167 22.1583 31.875L20.7833 34.1667C20.6 34.4417 20.2333 34.625 19.9583 34.625Z" fill="white"/>
<path d="M18.675 22.25C18.4917 22.25 18.3083 22.25 18.2167 22.1583L15.8333 20.7833C15.375 20.5083 15.1917 19.9583 15.4667 19.5C15.7417 19.0417 16.2917 18.95 16.75 19.1333L19.1333 20.5083C19.5917 20.7833 19.6833 21.3333 19.4083 21.7917C19.3167 22.0667 18.95 22.25 18.675 22.25Z" fill="white"/>
<path d="M33.7083 30.9583C33.525 30.9583 33.4333 30.9583 33.25 30.8667L30.8667 29.4917C30.4083 29.2167 30.3167 28.6667 30.5 28.2083C30.775 27.75 31.325 27.6583 31.7833 27.8417L34.1667 29.2167C34.625 29.4917 34.7167 30.0417 34.5333 30.5C34.35 30.775 34.075 30.9583 33.7083 30.9583Z" fill="white"/>
<path d="M21.3333 19.5917C21.0583 19.5917 20.6917 19.4083 20.5083 19.1333L19.1333 16.75C18.95 16.2917 19.0417 15.7417 19.5 15.4667C19.9583 15.1917 20.5083 15.375 20.7833 15.8333L22.1583 18.2167C22.3417 18.675 22.25 19.225 21.7917 19.4083C21.6083 19.5 21.5167 19.5917 21.3333 19.5917Z" fill="white"/>
<path d="M30.0417 34.625C29.7667 34.625 29.4 34.4417 29.2167 34.1667L27.8417 31.7833C27.5667 31.325 27.75 30.775 28.2083 30.5C28.6667 30.225 29.2167 30.4083 29.4917 30.8667L30.8667 33.25C31.1417 33.7083 30.9583 34.2583 30.5 34.5333C30.3167 34.625 30.225 34.625 30.0417 34.625Z" fill="white"/>
</svg>
