<?xml version="1.0" encoding="UTF-8"?>
<svg width="50px" height="50px" viewBox="0 0 50 50" version="1.1" xmlns="http://www.w3.org/2000/svg" xmlns:xlink="http://www.w3.org/1999/xlink">
    <title>icon-room-map</title>
    <g id="icon-room-map" stroke="none" stroke-width="1" fill="none" fill-rule="evenodd">
        <g id="map" transform="translate(3.000000, 0.000000)" fill="#FFFFFF" fill-rule="nonzero">
            <path d="M32,49 C31.6,49 31.2,48.8 30.8,48.6 C30.4,48.2 30,47.6 30,47 L30,7 C30,6.2 30.4,5.4 31.2,5.2 L41.2,1.2 C41.8,1 42.6,1 43,1.4 C43.6,1.8 44,2.4 44,3 L44,43 C44,43.8 43.6,44.6 42.8,44.8 L32.8,48.8 C32.6,49 32.2,49 32,49 Z M34,8.4 L34,44 L40,41.6 L40,6 L34,8.4 Z" id="Shape"></path>
            <path d="M12,49 C11.6,49 11.2,48.8 10.8,48.6 C10.4,48.2 10,47.6 10,47 L10,7 C10,6.2 10.4,5.4 11.2,5.2 L21.2,1.2 C21.8,1 22.6,1 23,1.4 C23.4,1.8 24,2.4 24,3 L24,43 C24,43.8 23.6,44.6 22.8,44.8 L12.8,48.8 C12.6,49 12.2,49 12,49 Z M14,8.4 L14,44 L20,41.6 L20,6 L14,8.4 Z" id="Shape"></path>
            <path d="M32,49 C31.8,49 31.4,49 31.2,48.8 L21.2,44.8 C20.4,44.6 20,43.8 20,43 L20,3 C20,2.4 20.4,1.8 20.8,1.4 C21.2,1 22,1 22.6,1.2 L32.6,5.2 C33.6,5.4 34,6.2 34,7 L34,47 C34,47.6 33.6,48.2 33.2,48.6 C32.8,48.8 32.4,49 32,49 Z M24,41.6 L30,44 L30,8.4 L24,6 L24,41.6 Z" id="Shape"></path>
            <path d="M12,49 C11.8,49 11.4,49 11.2,48.8 L1.2,44.8 C0.4,44.6 0,43.8 0,43 L0,3 C0,2.4 0.4,1.8 0.8,1.4 C1.4,1 2.2,0.8 2.8,1.2 L12.8,5.2 C13.6,5.4 14,6.2 14,7 L14,47 C14,47.6 13.6,48.2 13.2,48.6 C12.8,48.8 12.4,49 12,49 Z M4,41.6 L10,44 L10,8.4 L4,6 L4,41.6 Z" id="Shape"></path>
        </g>
    </g>
</svg>