<svg width="50" height="50" viewBox="0 0 50 50" fill="none" xmlns="http://www.w3.org/2000/svg">
<path d="M34.5943 46.0571H10.4114C5.78514 46.0571 2 42.272 2 37.6457V16.6171C2 11.9909 5.78514 8.20571 10.4114 8.20571H28.2857C29.5474 8.20571 30.3886 9.04685 30.3886 10.3086C30.3886 11.5703 29.5474 12.4114 28.2857 12.4114H10.4114C8.09829 12.4114 6.20571 14.304 6.20571 16.6171V37.6457C6.20571 39.9589 8.09829 41.8514 10.4114 41.8514H34.5943C36.9074 41.8514 38.8 39.9589 38.8 37.6457V22.9257C38.8 21.664 39.6411 20.8229 40.9029 20.8229C42.1646 20.8229 43.0057 21.664 43.0057 22.9257V37.6457C43.0057 42.272 39.2206 46.0571 34.5943 46.0571Z" fill="white"/>
<path d="M28.2857 25.0286C27.6549 25.0286 27.2343 24.8183 26.8137 24.3977C25.9726 23.5566 25.9726 22.2949 26.8137 21.4537L43.6366 4.63086C44.4777 3.78971 45.7394 3.78971 46.5806 4.63086C47.4217 5.472 47.4217 6.73371 46.5806 7.57486L29.7577 24.3977C29.3371 24.8183 28.9166 25.0286 28.2857 25.0286Z" fill="white"/>
<path d="M45.1086 8.20571H36.6971C35.4354 8.20571 34.5943 7.36457 34.5943 6.10286C34.5943 4.84114 35.4354 4 36.6971 4H45.1086C46.3703 4 47.2114 4.84114 47.2114 6.10286C47.2114 7.36457 46.3703 8.20571 45.1086 8.20571Z" fill="white"/>
<path d="M45.1086 16.6171C43.8469 16.6171 43.0057 15.776 43.0057 14.5143V6.10286C43.0057 4.84114 43.8469 4 45.1086 4C46.3703 4 47.2114 4.84114 47.2114 6.10286V14.5143C47.2114 15.776 46.3703 16.6171 45.1086 16.6171Z" fill="white"/>
</svg>
