<?xml version="1.0" encoding="UTF-8"?>
<svg width="50px" height="50px" viewBox="0 0 50 50" version="1.1" xmlns="http://www.w3.org/2000/svg" xmlns:xlink="http://www.w3.org/1999/xlink">
    <title>icon-room-burnbarrel</title>
    <g id="icon-room-burnbarrel" stroke="none" stroke-width="1" fill="none" fill-rule="evenodd">
        <g id="fire" transform="translate(8.000000, 3.000000)" fill="#FFFFFF" fill-rule="nonzero">
            <path d="M16.875,45 C7.5,45 0,37.5 0,28.125 C0,20.625 4.5,12.75 6.375,9.75 C7.5,8.0625 12.75,0 16.875,0 C18,0 18.75,0.75 18.75,1.875 C18.75,3 18,3.75 16.875,3.75 C14.25,4.125 3.75,17.625 3.75,28.125 C3.75,35.4375 9.5625,41.25 16.875,41.25 C24.1875,41.25 30,35.4375 30,28.125 C30,26.625 29.8125,25.125 29.4375,23.25 C28.5,19.6875 26.8125,15.5625 24.375,11.8125 C23.8125,10.875 24,9.75 24.9375,9.1875 C25.875,8.625 27,8.8125 27.5625,9.75 C30.1875,13.875 32.0625,18.375 33.1875,22.3125 C33.5625,24.375 33.75,26.4375 33.75,28.125 C33.75,37.5 26.25,45 16.875,45 Z" id="Path"></path>
            <path d="M22.5,18.5625 C21.9375,18.5625 21.375,18.375 21,18 C17.0625,13.5 15,7.875 15,1.875 C15,0.75 15.75,0 16.875,0 C18,0 18.75,0.75 18.75,1.875 C18.75,6.9375 20.625,11.8125 23.8125,15.5625 C24.5625,16.3125 24.375,17.4375 23.625,18.1875 C23.4375,18.375 22.875,18.5625 22.5,18.5625 Z" id="Path"></path>
            <path d="M22.5,18.5625 C21.9375,18.5625 21.5625,18.375 21.1875,18 C20.4375,17.25 20.4375,16.125 21.1875,15.375 C22.5,13.875 23.625,12.1875 24,10.3125 C24.1875,9.375 25.3125,8.8125 26.25,9 C27.1875,9.1875 27.9375,10.3125 27.5625,11.25 C27,13.6875 25.5,16.125 23.8125,18 C23.4375,18.375 22.875,18.5625 22.5,18.5625 Z" id="Path"></path>
            <path d="M16.875,45 C11.625,45 7.5,40.875 7.5,35.625 C7.5,29.8125 13.3125,20.625 16.875,20.625 C18,20.625 18.75,21.375 18.75,22.5 C18.75,23.4375 18,24.1875 17.0625,24.375 C15.75,25.125 11.25,31.125 11.25,35.625 C11.25,38.8125 13.6875,41.25 16.875,41.25 C20.0625,41.25 22.5,38.8125 22.5,35.625 C22.5,35.0625 22.3125,34.3125 22.125,33.375 C21.75,31.6875 20.8125,29.8125 19.6875,27.9375 C19.125,27 19.3125,25.875 20.25,25.3125 C21.1875,24.75 22.3125,24.9375 22.875,25.875 C24.1875,27.9375 25.3125,30.375 25.875,32.4375 C26.0625,33.5625 26.25,34.5 26.25,35.625 C26.25,40.875 22.125,45 16.875,45 Z" id="Path"></path>
            <path d="M19.6875,31.875 C19.125,31.875 18.5625,31.6875 18.1875,31.3125 C16.125,28.6875 15,25.6875 15,22.5 C15,21.375 15.75,20.625 16.875,20.625 C18,20.625 18.75,21.375 18.75,22.5 C18.75,24.75 19.5,27 21,28.6875 C21.75,29.4375 21.5625,30.5625 20.8125,31.3125 C20.625,31.6875 20.0625,31.875 19.6875,31.875 Z" id="Path"></path>
            <path d="M19.6875,31.875 C19.125,31.875 18.75,31.6875 18.375,31.3125 C17.625,30.5625 17.625,29.4375 18.375,28.6875 C18.9375,28.125 19.3125,27.375 19.5,26.625 C19.6875,25.6875 20.8125,24.9375 21.75,25.3125 C22.6875,25.5 23.4375,26.625 23.0625,27.5625 C22.6875,29.0625 21.9375,30.375 20.8125,31.3125 C20.625,31.6875 20.0625,31.875 19.6875,31.875 Z" id="Path"></path>
        </g>
    </g>
</svg>