<?xml version="1.0" encoding="UTF-8"?>
<svg width="50px" height="50px" viewBox="0 0 50 50" version="1.1" xmlns="http://www.w3.org/2000/svg" xmlns:xlink="http://www.w3.org/1999/xlink">
    <title>icon-room-auditorium</title>
    <g id="icon-room-auditorium" stroke="none" stroke-width="1" fill="none" fill-rule="evenodd">
        <g id="projector" transform="translate(0.000000, 2.000000)" fill="#FFFFFF" fill-rule="nonzero">
            <path d="M35.4166667,43.3333333 L2.08333333,43.3333333 C0.833333333,43.3333333 0,42.4666667 0,41.1666667 L0,15.1666667 C0,13.8666667 0.833333333,13 2.08333333,13 L35.4166667,13 C36.6666667,13 37.5,13.8666667 37.5,15.1666667 L37.5,20.8 L47.2916667,17.3333333 C47.9166667,17.1166667 48.5416667,17.1166667 49.1666667,17.55 C49.7916667,17.9833333 50,18.85 50,19.5 L50,36.8333333 C50,37.4833333 49.5833333,38.1333333 49.1666667,38.5666667 C48.5416667,39 47.9166667,39 47.2916667,38.7833333 L37.5,35.5333333 L37.5,41.1666667 C37.5,42.4666667 36.6666667,43.3333333 35.4166667,43.3333333 Z M4.16666667,39 L33.3333333,39 L33.3333333,32.5 C33.3333333,31.85 33.75,31.2 34.1666667,30.7666667 C34.7916667,30.3333333 35.4166667,30.3333333 36.0416667,30.55 L45.8333333,34.0166667 L45.8333333,22.75 L36.0416667,26.2166667 C35.4166667,26.4333333 34.7916667,26.4333333 34.1666667,26 C33.75,25.1333333 33.3333333,24.4833333 33.3333333,23.8333333 L33.3333333,17.3333333 L4.16666667,17.3333333 L4.16666667,39 Z" id="Shape"></path>
            <path d="M12.5,17.3333333 C7.91666667,17.3333333 4.16666667,13.4333333 4.16666667,8.66666667 C4.16666667,3.9 7.91666667,0 12.5,0 C17.0833333,0 20.8333333,3.9 20.8333333,8.66666667 C20.8333333,13.4333333 17.0833333,17.3333333 12.5,17.3333333 Z M12.5,4.33333333 C10.2083333,4.33333333 8.33333333,6.28333333 8.33333333,8.66666667 C8.33333333,11.05 10.2083333,13 12.5,13 C14.7916667,13 16.6666667,11.05 16.6666667,8.66666667 C16.6666667,6.28333333 14.7916667,4.33333333 12.5,4.33333333 Z" id="Shape"></path>
            <path d="M25,17.3333333 C20.4166667,17.3333333 16.6666667,13.4333333 16.6666667,8.66666667 C16.6666667,3.9 20.4166667,0 25,0 C29.5833333,0 33.3333333,3.9 33.3333333,8.66666667 C33.3333333,13.4333333 29.5833333,17.3333333 25,17.3333333 Z M25,4.33333333 C22.7083333,4.33333333 20.8333333,6.28333333 20.8333333,8.66666667 C20.8333333,11.05 22.7083333,13 25,13 C27.2916667,13 29.1666667,11.05 29.1666667,8.66666667 C29.1666667,6.28333333 27.2916667,4.33333333 25,4.33333333 Z" id="Shape"></path>
            <path d="M25,30.3333333 L12.5,30.3333333 C11.25,30.3333333 10.4166667,29.4666667 10.4166667,28.1666667 C10.4166667,26.8666667 11.25,26 12.5,26 L25,26 C26.25,26 27.0833333,26.8666667 27.0833333,28.1666667 C27.0833333,29.4666667 26.25,30.3333333 25,30.3333333 Z" id="Shape"></path>
        </g>
    </g>
</svg>