<?xml version="1.0" encoding="UTF-8"?>
<svg width="50px" height="50px" viewBox="0 0 50 50" version="1.1" xmlns="http://www.w3.org/2000/svg" xmlns:xlink="http://www.w3.org/1999/xlink">
    <title>icon-room-experience</title>
    <g id="icon-room-experience" stroke="none" stroke-width="1" fill="none" fill-rule="evenodd">
        <g id="brightness" transform="translate(1.000000, 1.000000)" fill="#FFFFFF" fill-rule="nonzero">
            <path d="M24,10 C22.8,10 22,9.2 22,8 L22,2 C22,0.8 22.8,0 24,0 C25.2,0 26,0.8 26,2 L26,8 C26,9.2 25.2,10 24,10 Z" id="Path"></path>
            <path d="M24,48 C22.8,48 22,47.2 22,46 L22,40 C22,38.8 22.8,38 24,38 C25.2,38 26,38.8 26,40 L26,46 C26,47.2 25.2,48 24,48 Z" id="Path"></path>
            <path d="M46,26 L40,26 C38.8,26 38,25.2 38,24 C38,22.8 38.8,22 40,22 L46,22 C47.2,22 48,22.8 48,24 C48,25.2 47.2,26 46,26 Z" id="Path"></path>
            <path d="M8,26 L2,26 C0.8,26 0,25.2 0,24 C0,22.8 0.8,22 2,22 L8,22 C9.2,22 10,22.8 10,24 C10,25.2 9.2,26 8,26 Z" id="Path"></path>
            <path d="M35.4,14.6 C34.8,14.6 34.4,14.4 34,14 C33.2,13.2 33.2,12 34,11.2 L38.2,7 C39,6.2 40.2,6.2 41,7 C41.8,7.8 41.8,9 41,9.8 L36.8,14 C36.4,14.4 35.8,14.6 35.4,14.6 Z" id="Path"></path>
            <path d="M8.4,41.6 C7.8,41.6 7.4,41.4 7,41 C6.2,40.2 6.2,39 7,38.2 L11.2,34 C12,33.2 13.2,33.2 14,34 C14.8,34.8 14.8,36 14,36.8 L9.8,41 C9.4,41.4 9,41.6 8.4,41.6 Z" id="Path"></path>
            <path d="M39.6,41.6 C39,41.6 38.6,41.4 38.2,41 L34,36.8 C33.2,36 33.2,34.8 34,34 C34.8,33.2 36,33.2 36.8,34 L41,38.2 C41.8,39 41.8,40.2 41,41 C40.6,41.4 40,41.6 39.6,41.6 Z" id="Path"></path>
            <path d="M12.6,14.6 C12,14.6 11.6,14.4 11.2,14 L7,9.8 C6.2,9 6.2,7.8 7,7 C7.8,6.2 9,6.2 9.8,7 L14,11.2 C14.8,12 14.8,13.2 14,14 C13.8,14.4 13.2,14.6 12.6,14.6 Z" id="Path"></path>
            <path d="M24,34 C18.4,34 14,29.6 14,24 C14,18.4 18.4,14 24,14 C29.6,14 34,18.4 34,24 C34,29.6 29.6,34 24,34 Z M24,18 C20.6,18 18,20.6 18,24 C18,27.4 20.6,30 24,30 C27.4,30 30,27.4 30,24 C30,20.6 27.4,18 24,18 Z" id="Shape"></path>
        </g>
    </g>
</svg>