<?xml version="1.0" encoding="UTF-8"?>
<svg width="50px" height="50px" viewBox="0 0 50 50" version="1.1" xmlns="http://www.w3.org/2000/svg" xmlns:xlink="http://www.w3.org/1999/xlink">
    <title>icon-room-musicbar</title>
    <g id="icon-room-musicbar" stroke="none" stroke-width="1" fill="none" fill-rule="evenodd">
        <g id="mug" transform="translate(5.000000, 2.000000)" fill="#FFFFFF" fill-rule="nonzero">
            <path d="M30,46.6666667 L4,46.6666667 C2.8,46.6666667 2,45.8888889 2,44.7222222 L2,11.6666667 C2,10.5 2.8,9.72222222 4,9.72222222 L30,9.72222222 C31.2,9.72222222 32,10.5 32,11.6666667 L32,44.7222222 C32,45.8888889 31.2,46.6666667 30,46.6666667 Z M6,42.7777778 L28,42.7777778 L28,13.6111111 L6,13.6111111 L6,42.7777778 Z" id="Shape"></path>
            <path d="M6,13.6111111 C2.6,13.6111111 0,11.0833333 0,7.77777778 C0,4.47222222 2.6,1.94444444 6,1.94444444 C7.6,1.94444444 9,2.52777778 10.2,3.5 C11,4.27777778 11,5.44444444 10.2,6.22222222 C9.4,7 8.2,7 7.4,6.22222222 C7,6.02777778 6.6,5.83333333 6,5.83333333 C4.8,5.83333333 4,6.61111111 4,7.77777778 C4,8.94444444 4.8,9.72222222 6,9.72222222 C7.2,9.72222222 8,10.5 8,11.6666667 C8,12.8333333 7.2,13.6111111 6,13.6111111 Z" id="Shape"></path>
            <path d="M28,13.6111111 C26.8,13.6111111 26,12.8333333 26,11.6666667 C26,10.5 26.8,9.72222222 28,9.72222222 C29.2,9.72222222 30,8.94444444 30,7.77777778 C30,6.61111111 29.2,5.83333333 28,5.83333333 C27.4,5.83333333 26.8,6.02777778 26.6,6.41666667 C25.8,7.19444444 24.6,7.38888889 23.8,6.61111111 C23,5.83333333 22.8,4.66666667 23.6,3.88888889 C24.8,2.52777778 26.4,1.94444444 28.2,1.94444444 C31.6,1.94444444 34.2,4.47222222 34.2,7.77777778 C34.2,11.0833333 31.4,13.6111111 28,13.6111111 Z" id="Shape"></path>
            <path d="M25,7.19444444 C24.4,7.19444444 23.8,7 23.4,6.41666667 C22.6,5.63888889 21.4,5.63888889 20.6,6.22222222 C19.8,7 18.6,7 17.8,6.22222222 C17,5.44444444 17,4.27777778 17.8,3.5 C20.2,1.36111111 24.4,1.55555556 26.4,3.88888889 C27.2,4.66666667 27,6.02777778 26.2,6.61111111 C26,7 25.4,7.19444444 25,7.19444444 Z" id="Shape"></path>
            <path d="M19.2,6.80555556 C18.4,6.80555556 17.8,6.41666667 17.4,5.83333333 C16.8,4.66666667 15.4,3.88888889 13.8,3.88888889 C12.2,3.88888889 11.2,4.66666667 10.4,5.83333333 C10,6.80555556 8.8,7.19444444 7.8,6.61111111 C6.8,6.02777778 6.4,5.05555556 7,4.08333333 C8.4,1.55555556 11,0 14,0 C17,0 19.6,1.55555556 21,4.08333333 C21.6,5.05555556 21.2,6.22222222 20.2,6.80555556 C20,6.80555556 19.6,6.80555556 19.2,6.80555556 Z" id="Shape"></path>
            <path d="M38,23.3333333 C36.8,23.3333333 36,22.5555556 36,21.3888889 C36,19.25 34.2,17.5 32,17.5 C30.8,17.5 30,16.7222222 30,15.5555556 C30,14.3888889 30.8,13.6111111 32,13.6111111 C36.4,13.6111111 40,17.1111111 40,21.3888889 C40,22.5555556 39.2,23.3333333 38,23.3333333 Z" id="Shape"></path>
            <path d="M32,17.5 L30,17.5 C28.8,17.5 28,16.7222222 28,15.5555556 C28,14.3888889 28.8,13.6111111 30,13.6111111 L32,13.6111111 C33.2,13.6111111 34,14.3888889 34,15.5555556 C34,16.7222222 33.2,17.5 32,17.5 Z" id="Shape"></path>
            <path d="M38,29.1666667 C36.8,29.1666667 36,28.3888889 36,27.2222222 L36,21.3888889 C36,20.2222222 36.8,19.4444444 38,19.4444444 C39.2,19.4444444 40,20.2222222 40,21.3888889 L40,27.2222222 C40,28.3888889 39.2,29.1666667 38,29.1666667 Z" id="Shape"></path>
            <path d="M32,35 C30.8,35 30,34.2222222 30,33.0555556 C30,31.8888889 30.8,31.1111111 32,31.1111111 C34.2,31.1111111 36,29.3611111 36,27.2222222 C36,26.0555556 36.8,25.2777778 38,25.2777778 C39.2,25.2777778 40,26.0555556 40,27.2222222 C40,31.5 36.4,35 32,35 Z" id="Shape"></path>
            <path d="M32,35 L30,35 C28.8,35 28,34.2222222 28,33.0555556 C28,31.8888889 28.8,31.1111111 30,31.1111111 L32,31.1111111 C33.2,31.1111111 34,31.8888889 34,33.0555556 C34,34.2222222 33.2,35 32,35 Z" id="Shape"></path>
            <path d="M38,29.1666667 C36.8,29.1666667 36,28.3888889 36,27.2222222 L36,21.3888889 C36,20.2222222 36.8,19.4444444 38,19.4444444 C39.2,19.4444444 40,20.2222222 40,21.3888889 L40,27.2222222 C40,28.3888889 39.2,29.1666667 38,29.1666667 Z" id="Shape"></path>
            <path d="M12,38.8888889 C10.8,38.8888889 10,38.1111111 10,36.9444444 L10,19.4444444 C10,18.2777778 10.8,17.5 12,17.5 C13.2,17.5 14,18.2777778 14,19.4444444 L14,36.9444444 C14,38.1111111 13.2,38.8888889 12,38.8888889 Z" id="Shape"></path>
            <path d="M22,38.8888889 C20.8,38.8888889 20,38.1111111 20,36.9444444 L20,19.4444444 C20,18.2777778 20.8,17.5 22,17.5 C23.2,17.5 24,18.2777778 24,19.4444444 L24,36.9444444 C24,38.1111111 23.2,38.8888889 22,38.8888889 Z" id="Shape"></path>
        </g>
    </g>
</svg>