<svg xmlns="http://www.w3.org/2000/svg" width="50" height="50" fill="#fff">
    <path d="M25 32.5c-4.231 0-7.692-3.375-7.692-7.5S20.77 17.5 25 17.5s7.692 3.375 7.692 7.5S29.23 32.5 25 32.5zm0-11.25c-2.115 0-3.846 1.688-3.846 3.75s1.731 3.75 3.846 3.75 3.846-1.687 3.846-3.75-1.731-3.75-3.846-3.75zM25 40C10.577 40 2.5 26.5 2.115 25.938a1.67 1.67 0 0 1 0-1.875C2.5 23.5 10.577 10 25 10s22.5 13.5 22.885 14.063a1.67 1.67 0 0 1 0 1.875C47.5 26.5 39.423 40 25 40zM6.154 25C8.077 27.813 14.808 36.25 25 36.25S41.923 27.813 43.846 25C41.923 22.188 35.192 13.75 25 13.75S8.077 22.188 6.154 25z"/>
</svg>
