<?xml version="1.0" encoding="UTF-8"?>
<svg width="50px" height="50px" viewBox="0 0 50 50" version="1.1" xmlns="http://www.w3.org/2000/svg" xmlns:xlink="http://www.w3.org/1999/xlink">
    <title>icon-room-artpiece</title>
    <g id="icon-room-artpiece" stroke="none" stroke-width="1" fill="none" fill-rule="evenodd">
        <g id="eye" transform="translate(1.000000, 10.000000)" fill="#FFFFFF" fill-rule="nonzero">
            <path d="M24,22.5 C19.7692308,22.5 16.3076923,19.125 16.3076923,15 C16.3076923,10.875 19.7692308,7.5 24,7.5 C28.2307692,7.5 31.6923077,10.875 31.6923077,15 C31.6923077,19.125 28.2307692,22.5 24,22.5 Z M24,11.25 C21.8846154,11.25 20.1538462,12.9375 20.1538462,15 C20.1538462,17.0625 21.8846154,18.75 24,18.75 C26.1153846,18.75 27.8461538,17.0625 27.8461538,15 C27.8461538,12.9375 26.1153846,11.25 24,11.25 Z" id="Shape"></path>
            <path d="M24,30 C9.57692308,30 1.5,16.5 1.11538462,15.9375 C0.730769231,15.375 0.730769231,14.625 1.11538462,14.0625 C1.5,13.5 9.57692308,0 24,0 C38.4230769,0 46.5,13.5 46.8846154,14.0625 C47.2692308,14.625 47.2692308,15.375 46.8846154,15.9375 C46.5,16.5 38.4230769,30 24,30 Z M5.15384615,15 C7.07692308,17.8125 13.8076923,26.25 24,26.25 C34.1923077,26.25 40.9230769,17.8125 42.8461538,15 C40.9230769,12.1875 34.1923077,3.75 24,3.75 C13.8076923,3.75 7.07692308,12.1875 5.15384615,15 Z" id="Shape"></path>
        </g>
    </g>
</svg>