<svg width="50" height="50" viewBox="0 0 50 50" fill="none" xmlns="http://www.w3.org/2000/svg">
<path d="M8.33333 45.6667C7.08333 45.6667 6.25 44.8333 6.25 43.5833V6.08333C6.25 4.83333 7.08333 4 8.33333 4C9.58333 4 10.4167 4.83333 10.4167 6.08333V43.5833C10.4167 44.8333 9.58333 45.6667 8.33333 45.6667Z" fill="white"/>
<path d="M41.6667 45.6667C40.4167 45.6667 39.5833 44.8333 39.5833 43.5833V6.08333C39.5833 4.83333 40.4167 4 41.6667 4C42.9167 4 43.75 4.83333 43.75 6.08333V43.5833C43.75 44.8333 42.9167 45.6667 41.6667 45.6667Z" fill="white"/>
<path d="M47.9167 14.4167H2.08333C0.833333 14.4167 0 13.5833 0 12.3333C0 11.0833 0.833333 10.25 2.08333 10.25H47.9167C49.1667 10.25 50 11.0833 50 12.3333C50 13.5833 49.1667 14.4167 47.9167 14.4167Z" fill="white"/>
<path d="M47.9167 39.4167H2.08333C0.833333 39.4167 0 38.5833 0 37.3333C0 36.0833 0.833333 35.25 2.08333 35.25H47.9167C49.1667 35.25 50 36.0833 50 37.3333C50 38.5833 49.1667 39.4167 47.9167 39.4167Z" fill="white"/>
</svg>
