<svg width="50" height="50" viewBox="0 0 50 50" fill="none" xmlns="http://www.w3.org/2000/svg">
<path d="M42.1 36.2H7.9C6.76 36.2 6 35.44 6 34.3V11.5C6 10.36 6.76 9.6 7.9 9.6H42.1C43.24 9.6 44 10.36 44 11.5V34.3C44 35.44 43.24 36.2 42.1 36.2ZM9.8 32.4H40.2V13.4H9.8V32.4Z" fill="white"/>
<path d="M42.1 43.8H7.9C6.76 43.8 6 43.04 6 41.9V34.3C6 33.16 6.76 32.4 7.9 32.4H42.1C43.24 32.4 44 33.16 44 34.3V41.9C44 43.04 43.24 43.8 42.1 43.8ZM9.8 40H40.2V36.2H9.8V40Z" fill="white"/>
<path d="M25 13.4C24.43 13.4 24.05 13.21 23.67 12.83C22.91 12.07 22.91 10.93 23.67 10.17L31.27 2.57C32.03 1.81 33.17 1.81 33.93 2.57C34.69 3.33 34.69 4.47 33.93 5.23L26.33 12.83C25.95 13.21 25.57 13.4 25 13.4Z" fill="white"/>
<path d="M25 13.4C24.43 13.4 24.05 13.21 23.67 12.83L17.97 7.13C17.21 6.37 17.21 5.23 17.97 4.47C18.73 3.71 19.87 3.71 20.63 4.47L26.33 10.17C27.09 10.93 27.09 12.07 26.33 12.83C25.95 13.21 25.57 13.4 25 13.4Z" fill="white"/>
<path d="M13.6 47.6C12.46 47.6 11.7 46.84 11.7 45.7V41.9C11.7 40.76 12.46 40 13.6 40C14.74 40 15.5 40.76 15.5 41.9V45.7C15.5 46.84 14.74 47.6 13.6 47.6Z" fill="white"/>
<path d="M36.4 47.6C35.26 47.6 34.5 46.84 34.5 45.7V41.9C34.5 40.76 35.26 40 36.4 40C37.54 40 38.3 40.76 38.3 41.9V45.7C38.3 46.84 37.54 47.6 36.4 47.6Z" fill="white"/>
</svg>
