<svg width="50" height="50" viewBox="0 0 50 50" fill="none" xmlns="http://www.w3.org/2000/svg">
<g clip-path="url(#clip0_1602_1143)">
<path d="M42.3796 49.459H7.79911C6.71964 49.459 6 48.7394 6 47.6599V4.07946C6 2.99999 6.71964 2.28035 7.79911 2.28035H42.3796C43.459 2.28035 44.1787 2.99999 44.1787 4.07946V47.6599C44.1787 48.7394 43.459 49.459 42.3796 49.459ZM9.59822 45.8608H40.5804V5.87857H9.59822V45.8608Z" fill="white"/>
<path d="M35.5089 7.2305C35.1272 6.84885 35 6.46721 35 5.95834L35 1.78103C35 0.763298 35.7633 4.21468e-08 36.781 0C37.7988 4.21468e-08 38.5621 0.763299 38.5621 1.78103L38.5621 5.95834C38.5621 6.97607 37.7988 7.73937 36.781 7.73937C36.2722 7.73937 35.8905 7.61215 35.5089 7.2305Z" fill="white"/>
<path d="M11.5089 7.2305C11.1272 6.84885 11 6.46721 11 5.95834L11 1.78103C11 0.763298 11.7633 4.21468e-08 12.781 0C13.7988 4.21468e-08 14.5621 0.763299 14.5621 1.78103L14.5621 5.95834C14.5621 6.97607 13.7988 7.73937 12.781 7.73937C12.2722 7.73937 11.8905 7.61215 11.5089 7.2305Z" fill="white"/>
<path d="M15.5089 32.3335C15.1272 31.9519 15 31.5702 15 31.0614C15 30.0436 15.7633 29.2803 16.781 29.2803H32.5027C33.5204 29.2803 34.2837 30.0436 34.2837 31.0614C34.2837 32.0791 33.5204 32.8424 32.5027 32.8424H16.781C16.2722 32.8424 15.8905 32.7152 15.5089 32.3335Z" fill="white"/>
<path d="M15.5089 38.523C15.1272 38.1414 15 37.7597 15 37.2508C15 36.2331 15.7633 35.4698 16.781 35.4698L30.5027 35.4698C31.5204 35.4698 32.2837 36.2331 32.2837 37.2508C32.2837 38.2686 31.5204 39.0319 30.5027 39.0319H24.6418H16.781C16.2722 39.0319 15.8905 38.9047 15.5089 38.523Z" fill="white"/>
<path d="M17.5089 13.0532C17.1272 12.6715 17 12.2899 17 11.781C17 10.7633 17.7633 10 18.781 10H31.5027C32.5204 10 33.2837 10.7633 33.2837 11.781C33.2837 12.7988 32.5204 13.5621 31.5027 13.5621H18.781C18.2722 13.5621 17.8905 13.4348 17.5089 13.0532Z" fill="white"/>
<path d="M17.5089 10.5089C17.8905 10.1272 18.2722 10 18.781 10C19.7988 10 20.5621 10.7633 20.5621 11.781L20.5621 24.5027C20.5621 25.5204 19.7988 26.2837 18.781 26.2837C17.7633 26.2837 17 25.5204 17 24.5027L17 11.781C17 11.2722 17.1272 10.8905 17.5089 10.5089Z" fill="white"/>
<path d="M30.5089 10.5089C30.8905 10.1272 31.2722 10 31.781 10C32.7988 10 33.5621 10.7633 33.5621 11.781L33.5621 24.5027C33.5621 25.5204 32.7988 26.2837 31.781 26.2837C30.7633 26.2837 30 25.5204 30 24.5027L30 11.781C30 11.2722 30.1272 10.8905 30.5089 10.5089Z" fill="white"/>
<path d="M17.5089 26.0532C17.1272 25.6715 17 25.2899 17 24.781C17 23.7633 17.7633 23 18.781 23H31.5027C32.5204 23 33.2837 23.7633 33.2837 24.781C33.2837 25.7988 32.5204 26.5621 31.5027 26.5621H18.781C18.2722 26.5621 17.8905 26.4348 17.5089 26.0532Z" fill="white"/>
</g>
<defs>
<clipPath id="clip0_1602_1143">
<rect width="50" height="50" fill="white"/>
</clipPath>
</defs>
</svg>
