<?xml version="1.0" encoding="UTF-8"?>
<svg width="50px" height="50px" viewBox="0 0 50 50" version="1.1" xmlns="http://www.w3.org/2000/svg" xmlns:xlink="http://www.w3.org/1999/xlink">
    <title>icon-room-externallink</title>
    <g id="icon-room-externallink" stroke="none" stroke-width="1" fill="none" fill-rule="evenodd">
        <g id="external" transform="translate(2.000000, 4.000000)" fill="#FFFFFF" fill-rule="nonzero">
            <path d="M32.5942857,42.0571429 L8.41142857,42.0571429 C3.78514286,42.0571429 0,38.272 0,33.6457143 L0,12.6171429 C0,7.99085714 3.78514286,4.20571429 8.41142857,4.20571429 L26.2857143,4.20571429 C27.5474286,4.20571429 28.3885714,5.04685714 28.3885714,6.30857143 C28.3885714,7.57028571 27.5474286,8.41142857 26.2857143,8.41142857 L8.41142857,8.41142857 C6.09828571,8.41142857 4.20571429,10.304 4.20571429,12.6171429 L4.20571429,33.6457143 C4.20571429,35.9588571 6.09828571,37.8514286 8.41142857,37.8514286 L32.5942857,37.8514286 C34.9074286,37.8514286 36.8,35.9588571 36.8,33.6457143 L36.8,18.9257143 C36.8,17.664 37.6411429,16.8228571 38.9028571,16.8228571 C40.1645714,16.8228571 41.0057143,17.664 41.0057143,18.9257143 L41.0057143,33.6457143 C41.0057143,38.272 37.2205714,42.0571429 32.5942857,42.0571429 Z" id="Path"></path>
            <path d="M26.2857143,21.0285714 C25.6548571,21.0285714 25.2342857,20.8182857 24.8137143,20.3977143 C23.9725714,19.5565714 23.9725714,18.2948571 24.8137143,17.4537143 L41.6365714,0.630857143 C42.4777143,-0.210285714 43.7394286,-0.210285714 44.5805714,0.630857143 C45.4217143,1.472 45.4217143,2.73371429 44.5805714,3.57485714 L27.7577143,20.3977143 C27.3371429,20.8182857 26.9165714,21.0285714 26.2857143,21.0285714 Z" id="Path"></path>
            <path d="M43.1085714,4.20571429 L34.6971429,4.20571429 C33.4354286,4.20571429 32.5942857,3.36457143 32.5942857,2.10285714 C32.5942857,0.841142857 33.4354286,0 34.6971429,0 L43.1085714,0 C44.3702857,0 45.2114286,0.841142857 45.2114286,2.10285714 C45.2114286,3.36457143 44.3702857,4.20571429 43.1085714,4.20571429 Z" id="Path"></path>
            <path d="M43.1085714,12.6171429 C41.8468571,12.6171429 41.0057143,11.776 41.0057143,10.5142857 L41.0057143,2.10285714 C41.0057143,0.841142857 41.8468571,0 43.1085714,0 C44.3702857,0 45.2114286,0.841142857 45.2114286,2.10285714 L45.2114286,10.5142857 C45.2114286,11.776 44.3702857,12.6171429 43.1085714,12.6171429 Z" id="Path"></path>
        </g>
    </g>
</svg>