<svg width="80" height="133" viewBox="0 0 80 133" fill="none" xmlns="http://www.w3.org/2000/svg">
    <g filter="url(#filter0_d)">
        <path fill-rule="evenodd" clip-rule="evenodd" d="M39.9496 124.017C37.3514 95.7065 33.6471 76.6193 28.4714 71.8098C23.2958 67.0003 16.04 64.3407 6.7041 63.8311C16.3515 63.0771 23.6072 60.0887 28.4714 54.8658C33.3356 49.6429 37.165 34.3724 39.9596 4C42.4989 34.3724 46.3956 49.6429 51.6495 54.8658C56.9035 60.0887 64.4547 63.0771 73.9866 63.8311C64.2803 64.1772 56.7291 66.8368 51.6495 71.8098C46.5699 76.7828 42.5482 95.87 39.9496 124.017Z" fill="url(#paint0_linear)"/>
    </g>
    <defs>
        <filter id="filter0_d" x="0.70035" y="0.397749" width="79.29" height="132.025" filterUnits="userSpaceOnUse" color-interpolation-filters="sRGB">
            <feFlood flood-opacity="0" result="BackgroundImageFix"/>
            <feColorMatrix in="SourceAlpha" type="matrix" values="0 0 0 0 0 0 0 0 0 0 0 0 0 0 0 0 0 0 127 0" result="hardAlpha"/>
            <feOffset dy="2.4015"/>
            <feGaussianBlur stdDeviation="3.00188"/>
            <feColorMatrix type="matrix" values="0 0 0 0 0 0 0 0 0 0 0 0 0 0 0 0 0 0 0.37 0"/>
            <feBlend mode="normal" in2="BackgroundImageFix" result="effect1_dropShadow"/>
            <feBlend mode="normal" in="SourceGraphic" in2="effect1_dropShadow" result="shape"/>
        </filter>
        <linearGradient id="paint0_linear" x1="40.2662" y1="124.051" x2="40.2662" y2="55.1798" gradientUnits="userSpaceOnUse">
            <stop stop-color="#FFDEB8"/>
            <stop offset="1" stop-color="white"/>
        </linearGradient>
    </defs>
</svg>
