<svg width="96" height="70" viewBox="0 0 96 70" fill="none" xmlns="http://www.w3.org/2000/svg">
<g opacity="0.5">
<path fill-rule="evenodd" clip-rule="evenodd" d="M84.3772 33.5979L78.2814 39.0164C77.9512 39.31 77.4455 39.2802 77.152 38.95C77.0218 38.8036 76.9499 38.6144 76.9499 38.4185V27.5815C76.9499 27.1396 77.3081 26.7815 77.7499 26.7815C77.9458 26.7815 78.135 26.8534 78.2814 26.9835L84.3772 32.4021C84.7075 32.6956 84.7372 33.2013 84.4437 33.5315C84.4228 33.5549 84.4007 33.5771 84.3772 33.5979Z" fill="white"/>
</g>
<g opacity="0.6">
<path d="M27.6689 17.255H25.3909C25.3909 17.255 25.0169 17.255 24.9489 17.578C24.9319 17.714 24.7109 18.887 24.4729 20.094C24.2519 21.301 23.7249 24.038 23.6909 24.038C23.6399 24.038 22.9939 20.689 22.8919 20.094C22.7729 19.499 22.4499 17.714 22.4159 17.578C22.3479 17.238 21.9399 17.255 21.9399 17.255L20.0019 17.238C20.0019 17.238 19.6789 17.238 19.6109 17.578C19.5939 17.714 19.2709 19.567 19.1689 20.094C19.0669 20.621 18.4889 24.038 18.3869 24.038C18.2849 24.038 17.4689 19.55 17.5709 20.094C17.6899 20.638 17.1459 17.714 17.1119 17.578C17.0439 17.238 16.7039 17.255 16.7039 17.255H14.3409C14.3409 17.255 14.0179 17.255 14.1029 17.578C14.1369 17.748 15.4119 23.035 15.5649 23.647L17.2819 30.039C17.3499 30.362 17.6389 30.362 17.6389 30.362H19.9679C20.1889 30.362 20.2569 30.039 20.2569 30.039L20.3419 27.013C20.4609 26.35 20.9879 22.95 21.0389 22.95C21.0899 22.95 21.3959 25.126 21.7019 27.013C21.9229 28.373 22.1099 29.58 22.1269 29.716C22.1779 30.039 22.4499 30.039 22.4499 30.039H24.7619C24.7619 30.039 25.0339 30.039 25.1189 29.699C25.3399 28.798 26.4109 24.14 26.5299 23.647C26.5809 23.375 26.9719 21.641 27.3289 20.094C27.6349 18.819 27.9579 17.663 27.9749 17.578C28.0429 17.238 27.6689 17.255 27.6689 17.255Z" fill="#DEBEB1"/>
<path d="M36.8786 23.664C36.8786 22.406 36.9296 17.646 36.9296 17.646C36.9296 17.646 36.9636 17.272 36.4536 17.272L34.4646 17.255C33.9376 17.255 33.9206 17.799 33.9206 17.799L33.9546 19.516C33.9716 19.992 34.0226 21.641 34.0226 22.185C34.0226 22.355 33.8866 22.355 33.8866 22.355H31.9316C31.9316 22.355 31.7956 22.355 31.7956 22.185C31.7956 21.641 31.8466 19.992 31.8636 19.516L31.8976 17.799C31.8976 17.799 31.8806 17.255 31.3536 17.255C30.9966 17.255 29.9596 17.272 29.3476 17.272C28.8546 17.272 28.8886 17.646 28.8886 17.646C28.8886 17.646 28.9566 22.848 28.9566 23.647C28.9566 24.463 28.8886 29.444 28.8886 29.444C28.8886 29.444 28.8546 30.056 29.3476 30.056H31.3536C31.3536 30.056 31.8976 30.005 31.8976 29.427C31.8976 29.172 31.8466 27.948 31.8466 27.523C31.8466 27.183 31.7956 25.585 31.7956 25.092C31.7956 24.956 31.9316 24.939 31.9316 24.939H33.8866C33.8866 24.939 34.0226 24.956 34.0226 25.092C34.0226 25.585 33.9716 27.183 33.9716 27.523C33.9716 27.948 33.9206 29.172 33.9206 29.427C33.9206 30.005 34.4646 30.056 34.4646 30.056H36.4536C36.9636 30.056 36.9296 29.444 36.9296 29.444C36.9296 29.444 36.8786 24.905 36.8786 23.664Z" fill="#DEBEB1"/>
<path d="M47.3077 29.563C47.3077 29.563 46.5597 26.622 45.8627 23.647L44.4857 17.697C44.3837 17.238 43.8397 17.255 43.8397 17.255H41.4937C41.4937 17.255 40.9497 17.238 40.8477 17.697C40.7967 17.918 40.1507 20.791 39.4707 23.647C38.7737 26.605 38.0257 29.563 38.0257 29.563C37.9067 30.073 38.4847 30.039 38.4847 30.039H40.6947C41.0517 30.039 41.1027 29.716 41.1027 29.716L41.3747 28.39C41.4257 28.152 41.6637 28.169 41.6637 28.169H43.6697C43.6697 28.169 43.9077 28.152 43.9587 28.39L44.2307 29.716C44.2307 29.716 44.2817 30.039 44.6387 30.039H46.8487C46.8487 30.039 47.4267 30.073 47.3077 29.563ZM43.2107 25.874H42.1227C42.1227 25.874 41.7997 25.908 41.8507 25.534L42.6497 19.89L42.6667 19.839V19.89L43.4827 25.534C43.5337 25.908 43.2107 25.874 43.2107 25.874Z" fill="#DEBEB1"/>
<path d="M53.5968 17.255H47.5958C47.5958 17.255 47.2898 17.238 47.2898 17.578V19.652C47.2898 19.975 47.5958 19.975 47.5958 19.975H49.0068C49.0068 19.975 49.1768 19.941 49.1768 20.094C49.1768 20.162 49.2108 21.76 49.2108 23.647C49.2108 26.299 49.1768 29.512 49.1768 29.716C49.1768 30.039 49.4998 30.039 49.4998 30.039H51.7778C51.7778 30.039 52.0838 30.039 52.0838 29.716C52.0838 28.781 52.0498 25.976 52.0498 23.647C52.0498 21.743 52.0838 20.145 52.0838 20.094C52.0838 19.975 52.2368 19.975 52.2368 19.975H53.5968C53.5968 19.975 53.9538 20.009 53.9538 19.652V17.578C53.9538 17.238 53.5968 17.255 53.5968 17.255Z" fill="#DEBEB1"/>
<path d="M57.7343 17.255H56.3573C55.7963 17.255 55.6773 17.833 55.6773 17.833L54.9293 21.199C54.9293 21.199 54.6913 22.202 55.4393 22.202H55.9323C55.9323 22.202 56.6633 22.219 56.9863 21.199C57.4113 19.873 57.9723 18.326 58.1083 17.85C58.2953 17.17 57.7343 17.255 57.7343 17.255Z" fill="#DEBEB1"/>
<path d="M64.0065 22.814C63.1905 21.998 62.2385 21.505 62.1195 20.91C62.0175 20.417 62.2895 19.839 63.1905 19.839C63.5645 19.839 64.1255 19.992 64.8055 20.4C64.8905 20.451 65.0945 20.604 65.0945 20.281V17.884C65.0945 17.612 64.8735 17.493 64.7545 17.442C64.0575 17.136 63.2245 17 62.5275 17C60.3685 17 59.2805 18.547 59.2805 20.757C59.2805 22.27 60.2665 23.188 61.5585 24.208C62.8165 25.177 63.0715 25.636 63.0715 26.299C63.0715 26.673 62.9015 27.37 61.9835 27.37C61.3375 27.37 60.3005 26.826 59.6375 26.401C59.5015 26.316 59.2635 26.18 59.2635 26.435V29.07C59.2635 29.308 59.4335 29.427 59.5185 29.478C60.4025 30.005 61.2355 30.328 62.2725 30.328C65.2815 30.328 65.8255 27.591 65.8255 26.503C65.8255 25.636 65.6045 24.123 64.0065 22.814Z" fill="#DEBEB1"/>
</g>
<g filter="url(#filter0_d)">
<path d="M27.6689 16.255H25.3909C25.3909 16.255 25.0169 16.255 24.9489 16.578C24.9319 16.714 24.7109 17.887 24.4729 19.094C24.2519 20.301 23.7249 23.038 23.6909 23.038C23.6399 23.038 22.9939 19.689 22.8919 19.094C22.7729 18.499 22.4499 16.714 22.4159 16.578C22.3479 16.238 21.9399 16.255 21.9399 16.255L20.0019 16.238C20.0019 16.238 19.6789 16.238 19.6109 16.578C19.5939 16.714 19.2709 18.567 19.1689 19.094C19.0669 19.621 18.4889 23.038 18.3869 23.038C18.2849 23.038 17.4689 18.55 17.5709 19.094C17.6899 19.638 17.1459 16.714 17.1119 16.578C17.0439 16.238 16.7039 16.255 16.7039 16.255H14.3409C14.3409 16.255 14.0179 16.255 14.1029 16.578C14.1369 16.748 15.4119 22.035 15.5649 22.647L16.9589 28.716C17.0269 29.039 17.3159 29.039 17.3159 29.039H19.6449C19.8659 29.039 19.9339 28.716 19.9339 28.716L20.3419 26.013C20.4609 25.35 20.9879 21.95 21.0389 21.95C21.0899 21.95 21.3959 24.126 21.7019 26.013C21.9229 27.373 22.1099 28.58 22.1269 28.716C22.1779 29.039 22.4499 29.039 22.4499 29.039H24.7619C24.7619 29.039 25.0339 29.039 25.1189 28.699C25.3399 27.798 26.4109 23.14 26.5299 22.647C26.5809 22.375 26.9719 20.641 27.3289 19.094C27.6349 17.819 27.9579 16.663 27.9749 16.578C28.0429 16.238 27.6689 16.255 27.6689 16.255Z" fill="url(#paint0_linear)"/>
<path d="M36.8786 22.664C36.8786 21.406 36.9296 16.646 36.9296 16.646C36.9296 16.646 36.9636 16.272 36.4536 16.272L34.4646 16.255C33.9376 16.255 33.9206 16.799 33.9206 16.799L33.9546 18.516C33.9716 18.992 34.0226 20.641 34.0226 21.185C34.0226 21.355 33.8866 21.355 33.8866 21.355H31.9316C31.9316 21.355 31.7956 21.355 31.7956 21.185C31.7956 20.641 31.8466 18.992 31.8636 18.516L31.8976 16.799C31.8976 16.799 31.8806 16.255 31.3536 16.255C30.9966 16.255 29.9596 16.272 29.3476 16.272C28.8546 16.272 28.8886 16.646 28.8886 16.646C28.8886 16.646 28.9566 21.848 28.9566 22.647C28.9566 23.463 28.8886 28.444 28.8886 28.444C28.8886 28.444 28.8546 29.056 29.3476 29.056H31.3536C31.3536 29.056 31.8976 29.005 31.8976 28.427C31.8976 28.172 31.8466 26.948 31.8466 26.523C31.8466 26.183 31.7956 24.585 31.7956 24.092C31.7956 23.956 31.9316 23.939 31.9316 23.939H33.8866C33.8866 23.939 34.0226 23.956 34.0226 24.092C34.0226 24.585 33.9716 26.183 33.9716 26.523C33.9716 26.948 33.9206 28.172 33.9206 28.427C33.9206 29.005 34.4646 29.056 34.4646 29.056H36.4536C36.9636 29.056 36.9296 28.444 36.9296 28.444C36.9296 28.444 36.8786 23.905 36.8786 22.664Z" fill="url(#paint1_linear)"/>
<path d="M47.3077 28.563C47.3077 28.563 46.5597 25.622 45.8627 22.647L44.4857 16.697C44.3837 16.238 43.8397 16.255 43.8397 16.255H41.4937C41.4937 16.255 40.9497 16.238 40.8477 16.697C40.7967 16.918 40.1507 19.791 39.4707 22.647C38.7737 25.605 38.0257 28.563 38.0257 28.563C37.9067 29.073 38.4847 29.039 38.4847 29.039H40.6947C41.0517 29.039 41.1027 28.716 41.1027 28.716L41.3747 27.39C41.4257 27.152 41.6637 27.169 41.6637 27.169H43.6697C43.6697 27.169 43.9077 27.152 43.9587 27.39L44.2307 28.716C44.2307 28.716 44.2817 29.039 44.6387 29.039H46.8487C46.8487 29.039 47.4267 29.073 47.3077 28.563ZM43.2107 24.874H42.1227C42.1227 24.874 41.7997 24.908 41.8507 24.534L42.6497 18.89L42.6667 18.839V18.89L43.4827 24.534C43.5337 24.908 43.2107 24.874 43.2107 24.874Z" fill="url(#paint2_linear)"/>
<path d="M53.5968 16.255H47.5958C47.5958 16.255 47.2898 16.238 47.2898 16.578V18.652C47.2898 18.975 47.5958 18.975 47.5958 18.975H49.0068C49.0068 18.975 49.1768 18.941 49.1768 19.094C49.1768 19.162 49.2108 20.76 49.2108 22.647C49.2108 25.299 49.1768 28.512 49.1768 28.716C49.1768 29.039 49.4998 29.039 49.4998 29.039H51.7778C51.7778 29.039 52.0838 29.039 52.0838 28.716C52.0838 27.781 52.0498 24.976 52.0498 22.647C52.0498 20.743 52.0838 19.145 52.0838 19.094C52.0838 18.975 52.2368 18.975 52.2368 18.975H53.5968C53.5968 18.975 53.9538 19.009 53.9538 18.652V16.578C53.9538 16.238 53.5968 16.255 53.5968 16.255Z" fill="url(#paint3_linear)"/>
<path d="M57.7343 16.255H56.3573C55.7963 16.255 55.6773 16.833 55.6773 16.833L54.9293 20.199C54.9293 20.199 54.6913 21.202 55.4393 21.202H55.9323C55.9323 21.202 56.6633 21.219 56.9863 20.199C57.4113 18.873 57.9723 17.326 58.1083 16.85C58.2953 16.17 57.7343 16.255 57.7343 16.255Z" fill="url(#paint4_linear)"/>
<path d="M64.0065 21.814C63.1905 20.998 62.2385 20.505 62.1195 19.91C62.0175 19.417 62.2895 18.839 63.1905 18.839C63.5645 18.839 64.1255 18.992 64.8055 19.4C64.8905 19.451 65.0945 19.604 65.0945 19.281V16.884C65.0945 16.612 64.8735 16.493 64.7545 16.442C64.0575 16.136 63.2245 16 62.5275 16C60.3685 16 59.2805 17.547 59.2805 19.757C59.2805 21.27 60.2665 22.188 61.5585 23.208C62.8165 24.177 63.0715 24.636 63.0715 25.299C63.0715 25.673 62.9015 26.37 61.9835 26.37C61.3375 26.37 60.3005 25.826 59.6375 25.401C59.5015 25.316 59.2635 25.18 59.2635 25.435V28.07C59.2635 28.308 59.4335 28.427 59.5185 28.478C60.4025 29.005 61.2355 29.328 62.2725 29.328C65.2815 29.328 65.8255 26.591 65.8255 25.503C65.8255 24.636 65.6045 23.123 64.0065 21.814Z" fill="url(#paint5_linear)"/>
</g>
<path d="M32.1033 35.4399C27.9833 35.4399 26.3833 39.4199 26.3833 43.3999C26.3833 47.3599 27.9833 51.3399 32.1033 51.3399C36.2233 51.3399 37.8233 47.3599 37.8233 43.3999C37.8233 39.4199 36.2233 35.4399 32.1033 35.4399ZM32.1033 48.2399C30.7033 48.2399 29.9033 46.1199 29.9033 43.3999C29.9033 40.6599 30.7433 38.5399 32.1033 38.5399C33.4633 38.5399 34.2833 40.6599 34.2833 43.3999C34.2833 46.1199 33.5433 48.2399 32.1033 48.2399Z" fill="#DEBEB1" fill-opacity="0.6"/>
<path d="M51.2247 36.2599C51.2247 35.8599 50.7847 35.8799 50.7847 35.8799H48.3047C48.3047 35.8799 47.8847 35.8799 47.8847 36.2599C47.8847 36.4199 47.9047 39.3599 47.9247 40.0199C47.9047 40.6999 47.8847 43.7799 47.8847 43.7799C47.8847 43.7799 46.6447 40.7799 46.3647 40.0399C46.1047 39.2799 45.0047 36.4599 44.9247 36.2599C44.7647 35.8599 44.4047 35.8799 44.4047 35.8799H41.5447C41.5447 35.8799 41.2247 35.8599 41.2247 36.2599C41.2247 36.4599 41.2847 42.6599 41.2847 43.3999C41.2847 44.1399 41.2247 50.3399 41.2247 50.5199C41.2247 50.9199 41.6247 50.9199 41.6247 50.9199H44.1047C44.1047 50.9199 44.5647 50.9199 44.5647 50.5199C44.5647 50.3399 44.5247 48.0399 44.5247 46.6999C44.5247 45.3599 44.5647 42.8599 44.5647 42.8599L46.0847 46.6999C45.8847 46.1799 47.4447 50.3399 47.5247 50.5199C47.6647 50.9199 48.1647 50.9199 48.1647 50.9199H50.8447C50.8447 50.9199 51.2247 50.9199 51.2247 50.5199C51.2247 50.3399 51.1647 44.1799 51.1647 43.3999C51.1647 42.6199 51.2247 36.4599 51.2247 36.2599Z" fill="#DEBEB1" fill-opacity="0.6"/>
<g filter="url(#filter1_d)">
<path d="M32.1033 34.4399C27.9833 34.4399 26.3833 38.4199 26.3833 42.3999C26.3833 46.3599 27.9833 50.3399 32.1033 50.3399C36.2233 50.3399 37.8233 46.3599 37.8233 42.3999C37.8233 38.4199 36.2233 34.4399 32.1033 34.4399ZM32.1033 47.2399C30.7033 47.2399 29.9033 45.1199 29.9033 42.3999C29.9033 39.6599 30.7433 37.5399 32.1033 37.5399C33.4633 37.5399 34.2833 39.6599 34.2833 42.3999C34.2833 45.1199 33.5433 47.2399 32.1033 47.2399Z" fill="url(#paint6_linear)"/>
<path d="M51.2247 35.2599C51.2247 34.8599 50.7847 34.8799 50.7847 34.8799H48.3047C48.3047 34.8799 47.8847 34.8799 47.8847 35.2599C47.8847 35.4199 47.9047 38.3599 47.9247 39.0199C47.9047 39.6999 47.8847 42.7799 47.8847 42.7799C47.8847 42.7799 46.6447 39.7799 46.3647 39.0399C46.1047 38.2799 45.0047 35.4599 44.9247 35.2599C44.7647 34.8599 44.4047 34.8799 44.4047 34.8799H41.5447C41.5447 34.8799 41.2247 34.8599 41.2247 35.2599C41.2247 35.4599 41.2847 41.6599 41.2847 42.3999C41.2847 43.1399 41.2247 49.3399 41.2247 49.5199C41.2247 49.9199 41.6247 49.9199 41.6247 49.9199H44.1047C44.1047 49.9199 44.5647 49.9199 44.5647 49.5199C44.5647 49.3399 44.5247 47.0399 44.5247 45.6999C44.5247 44.3599 44.5647 41.8599 44.5647 41.8599L46.0847 45.6999C45.8847 45.1799 47.4447 49.3399 47.5247 49.5199C47.6647 49.9199 48.1647 49.9199 48.1647 49.9199H50.8447C50.8447 49.9199 51.2247 49.9199 51.2247 49.5199C51.2247 49.3399 51.1647 43.1799 51.1647 42.3999C51.1647 41.6199 51.2247 35.4599 51.2247 35.2599Z" fill="url(#paint7_linear)"/>
</g>
<path opacity="0.4" fill-rule="evenodd" clip-rule="evenodd" d="M20.0121 50.7588C19.4658 46.7673 19.38 44.0095 19.972 43.1696C20.564 42.3298 21.5269 41.7152 22.8607 41.3259C21.4407 41.5517 20.2939 41.3877 19.4202 40.8339C18.5465 40.2801 17.4953 38.3059 16.1019 34.2146C16.7237 38.4882 16.6574 40.7264 16.0676 41.626C15.4777 42.5255 14.4828 43.1955 13.1286 43.6252C14.5438 43.3412 15.7227 43.4498 16.6194 43.9617C17.5161 44.4737 18.7195 46.9674 20.0121 50.7588Z" fill="url(#paint8_linear)"/>
<path opacity="0.4" fill-rule="evenodd" clip-rule="evenodd" d="M61.9863 45.9139C62.7905 43.1824 63.5612 41.3817 64.2518 41.0171C64.9425 40.6525 65.8386 40.5432 66.9402 40.6892C65.8245 40.4123 65.0281 39.9658 64.5511 39.3496C64.0741 38.7335 63.8957 37.1502 64.1051 34.1025C63.2715 37.0382 62.5457 38.4591 61.8386 38.8628C61.1314 39.2664 60.1949 39.4019 59.0661 39.2759C60.1959 39.5138 61.0326 39.9342 61.5393 40.5303C62.0459 41.1264 62.1794 43.0893 61.9863 45.9139Z" fill="url(#paint9_linear)"/>
<path opacity="0.4" fill-rule="evenodd" clip-rule="evenodd" d="M55.6891 54.9894C56.0833 52.8904 56.5227 51.4887 57.0106 51.1646C57.4985 50.8405 58.159 50.6914 58.992 50.7173C58.1386 50.5948 57.5107 50.3216 57.1083 49.8978C56.7059 49.4739 56.4535 48.3059 56.3801 46.0159C55.9792 48.2694 55.5447 49.3844 55.0475 49.7389C54.5502 50.0934 53.8616 50.265 53.0098 50.2561C53.8708 50.3485 54.5268 50.5991 54.9498 51.0057C55.3728 51.4124 55.6203 52.867 55.6891 54.9894Z" fill="url(#paint10_linear)"/>
<path opacity="0.4" fill-rule="evenodd" clip-rule="evenodd" d="M11.4981 35.2268C12.0063 33.3965 12.5018 32.1875 12.9587 31.9371C13.4157 31.6868 14.0123 31.6047 14.7486 31.6906C14.0015 31.5175 13.4657 31.2279 13.1412 30.8218C12.8167 30.4157 12.6813 29.3615 12.7896 27.3264C12.2638 29.2932 11.7943 30.2485 11.3268 30.525C10.8593 30.8015 10.236 30.9015 9.48174 30.8291C10.2378 30.9762 10.8003 31.248 11.1444 31.6404C11.4884 32.0327 11.5977 33.3407 11.4981 35.2268Z" fill="url(#paint11_linear)"/>
<defs>
<filter id="filter0_d" x="2.08862" y="11" width="75.7369" height="37.328" filterUnits="userSpaceOnUse" color-interpolation-filters="sRGB">
<feFlood flood-opacity="0" result="BackgroundImageFix"/>
<feColorMatrix in="SourceAlpha" type="matrix" values="0 0 0 0 0 0 0 0 0 0 0 0 0 0 0 0 0 0 127 0" result="hardAlpha"/>
<feOffset dy="7"/>
<feGaussianBlur stdDeviation="6"/>
<feColorMatrix type="matrix" values="0 0 0 0 0 0 0 0 0 0 0 0 0 0 0 0 0 0 0.04 0"/>
<feBlend mode="normal" in2="BackgroundImageFix" result="effect1_dropShadow"/>
<feBlend mode="normal" in="SourceGraphic" in2="effect1_dropShadow" result="shape"/>
</filter>
<filter id="filter1_d" x="14.3833" y="29.4399" width="48.8414" height="39.9" filterUnits="userSpaceOnUse" color-interpolation-filters="sRGB">
<feFlood flood-opacity="0" result="BackgroundImageFix"/>
<feColorMatrix in="SourceAlpha" type="matrix" values="0 0 0 0 0 0 0 0 0 0 0 0 0 0 0 0 0 0 127 0" result="hardAlpha"/>
<feOffset dy="7"/>
<feGaussianBlur stdDeviation="6"/>
<feColorMatrix type="matrix" values="0 0 0 0 0 0 0 0 0 0 0 0 0 0 0 0 0 0 0.04 0"/>
<feBlend mode="normal" in2="BackgroundImageFix" result="effect1_dropShadow"/>
<feBlend mode="normal" in="SourceGraphic" in2="effect1_dropShadow" result="shape"/>
</filter>
<linearGradient id="paint0_linear" x1="14.0886" y1="22.6455" x2="65.8335" y2="22.6455" gradientUnits="userSpaceOnUse">
<stop stop-color="#FAEFDE"/>
<stop offset="0.182292" stop-color="white"/>
<stop offset="0.817708" stop-color="white"/>
<stop offset="1" stop-color="#FAEFDE"/>
</linearGradient>
<linearGradient id="paint1_linear" x1="14.0886" y1="22.6455" x2="65.8335" y2="22.6455" gradientUnits="userSpaceOnUse">
<stop stop-color="#FAEFDE"/>
<stop offset="0.182292" stop-color="white"/>
<stop offset="0.817708" stop-color="white"/>
<stop offset="1" stop-color="#FAEFDE"/>
</linearGradient>
<linearGradient id="paint2_linear" x1="14.0886" y1="22.6455" x2="65.8335" y2="22.6455" gradientUnits="userSpaceOnUse">
<stop stop-color="#FAEFDE"/>
<stop offset="0.182292" stop-color="white"/>
<stop offset="0.817708" stop-color="white"/>
<stop offset="1" stop-color="#FAEFDE"/>
</linearGradient>
<linearGradient id="paint3_linear" x1="14.0886" y1="22.6455" x2="65.8335" y2="22.6455" gradientUnits="userSpaceOnUse">
<stop stop-color="#FAEFDE"/>
<stop offset="0.182292" stop-color="white"/>
<stop offset="0.817708" stop-color="white"/>
<stop offset="1" stop-color="#FAEFDE"/>
</linearGradient>
<linearGradient id="paint4_linear" x1="14.0886" y1="22.6455" x2="65.8335" y2="22.6455" gradientUnits="userSpaceOnUse">
<stop stop-color="#FAEFDE"/>
<stop offset="0.182292" stop-color="white"/>
<stop offset="0.817708" stop-color="white"/>
<stop offset="1" stop-color="#FAEFDE"/>
</linearGradient>
<linearGradient id="paint5_linear" x1="14.0886" y1="22.6455" x2="65.8335" y2="22.6455" gradientUnits="userSpaceOnUse">
<stop stop-color="#FAEFDE"/>
<stop offset="0.182292" stop-color="white"/>
<stop offset="0.817708" stop-color="white"/>
<stop offset="1" stop-color="#FAEFDE"/>
</linearGradient>
<linearGradient id="paint6_linear" x1="26.3833" y1="42.3678" x2="49.2282" y2="42.3678" gradientUnits="userSpaceOnUse">
<stop stop-color="#FAEFDE"/>
<stop offset="0.182292" stop-color="white"/>
<stop offset="0.817708" stop-color="white"/>
<stop offset="1" stop-color="#FAEFDE"/>
</linearGradient>
<linearGradient id="paint7_linear" x1="26.3833" y1="42.3678" x2="49.2282" y2="42.3678" gradientUnits="userSpaceOnUse">
<stop stop-color="#FAEFDE"/>
<stop offset="0.182292" stop-color="white"/>
<stop offset="0.817708" stop-color="white"/>
<stop offset="1" stop-color="#FAEFDE"/>
</linearGradient>
<linearGradient id="paint8_linear" x1="19.9674" y1="50.7743" x2="17.7243" y2="41.2802" gradientUnits="userSpaceOnUse">
<stop stop-color="#FFDEB8"/>
<stop offset="1" stop-color="white"/>
</linearGradient>
<linearGradient id="paint9_linear" x1="61.9487" y1="45.9106" x2="63.1652" y2="39.1328" gradientUnits="userSpaceOnUse">
<stop stop-color="#FFDEB8"/>
<stop offset="1" stop-color="white"/>
</linearGradient>
<linearGradient id="paint10_linear" x1="55.6608" y1="54.9897" x2="56.0578" y2="49.8404" gradientUnits="userSpaceOnUse">
<stop stop-color="#FFDEB8"/>
<stop offset="1" stop-color="white"/>
</linearGradient>
<linearGradient id="paint11_linear" x1="11.4729" y1="35.225" x2="12.2145" y2="30.6914" gradientUnits="userSpaceOnUse">
<stop stop-color="#FFDEB8"/>
<stop offset="1" stop-color="white"/>
</linearGradient>
</defs>
</svg>
