<?xml version="1.0" encoding="UTF-8"?>
<svg width="40px" height="40px" viewBox="0 0 40 40" version="1.1" xmlns="http://www.w3.org/2000/svg" xmlns:xlink="http://www.w3.org/1999/xlink">
    <title>nav-link-radio</title>
    <g id="nav-link-radio" stroke="none" stroke-width="1" fill="none" fill-rule="evenodd">
        <path d="M22.8125,23.4880264 C20.9489375,23.4880264 19.4375,21.9134746 19.4375,19.970785 C19.4375,18.0286815 20.9489375,16.4535436 22.8125,16.4535436 C24.6760625,16.4535436 26.1875,18.0286815 26.1875,19.970785 C26.1875,21.9134746 24.6760625,23.4880264 22.8125,23.4880264 L22.8125,23.4880264 Z M17.1875,18.2121643 L13.8125,18.2121643 C13.5014375,18.2121643 13.25,17.9501298 13.25,17.6259574 C13.25,17.301785 13.5014375,17.0397505 13.8125,17.0397505 L17.1875,17.0397505 C17.4985625,17.0397505 17.75,17.301785 17.75,17.6259574 C17.75,17.9501298 17.4985625,18.2121643 17.1875,18.2121643 L17.1875,18.2121643 Z M17.1875,20.5569919 L13.8125,20.5569919 C13.5014375,20.5569919 13.25,20.2949574 13.25,19.970785 C13.25,19.6466126 13.5014375,19.3845781 13.8125,19.3845781 L17.1875,19.3845781 C17.4985625,19.3845781 17.75,19.6466126 17.75,19.970785 C17.75,20.2949574 17.4985625,20.5569919 17.1875,20.5569919 L17.1875,20.5569919 Z M17.1875,22.9018195 L13.8125,22.9018195 C13.5014375,22.9018195 13.25,22.639785 13.25,22.3156126 C13.25,21.9920264 13.5014375,21.7294057 13.8125,21.7294057 L17.1875,21.7294057 C17.4985625,21.7294057 17.75,21.9920264 17.75,22.3156126 C17.75,22.639785 17.4985625,22.9018195 17.1875,22.9018195 L17.1875,22.9018195 Z M26.75,13.5225091 L25.56875,13.5225091 L19.643375,10.0756126 C19.3745,9.91968154 19.03025,10.0128884 18.875,10.2819574 C18.71975,10.5510264 18.812,10.8951298 19.080875,11.0504746 L23.3609375,13.5225091 L13.25,13.5225091 C12.0074375,13.5225091 11,14.5724057 11,15.8673367 L11,24.0742333 C11,25.3691643 12.0074375,26.4190609 13.25,26.4190609 L26.75,26.4190609 C27.9925625,26.4190609 29,25.3691643 29,24.0742333 L29,15.8673367 C29,14.5724057 27.9925625,13.5225091 26.75,13.5225091 L26.75,13.5225091 Z M22.8125,17.6259574 C21.5699375,17.6259574 20.5625,18.675854 20.5625,19.970785 C20.5625,21.265716 21.5699375,22.3156126 22.8125,22.3156126 C24.0550625,22.3156126 25.0625,21.265716 25.0625,19.970785 C25.0625,18.675854 24.0550625,17.6259574 22.8125,17.6259574 L22.8125,17.6259574 Z" id="radio" fill="#FFFFFF" fill-rule="nonzero"></path>
    </g>
</svg>
