<svg width="17" height="17" viewBox="0 0 17 17" fill="none" xmlns="http://www.w3.org/2000/svg">
<path d="M5.81055 5.81055C6.12266 5.50176 6.62734 5.50176 6.90957 5.81055L8.47012 7.37441L10.0605 5.81055C10.3727 5.50176 10.8773 5.50176 11.1596 5.81055C11.4982 6.12266 11.4982 6.62734 11.1596 6.90957L9.62559 8.47012L11.1596 10.0605C11.4982 10.3727 11.4982 10.8773 11.1596 11.1596C10.8773 11.4982 10.3727 11.4982 10.0605 11.1596L8.47012 9.62559L6.90957 11.1596C6.62734 11.4982 6.12266 11.4982 5.81055 11.1596C5.50176 10.8773 5.50176 10.3727 5.81055 10.0605L7.37441 8.47012L5.81055 6.90957C5.50176 6.62734 5.50176 6.12266 5.81055 5.81055ZM17 8.5C17 13.1949 13.1949 17 8.5 17C3.80508 17 0 13.1949 0 8.5C0 3.80508 3.80508 0 8.5 0C13.1949 0 17 3.80508 17 8.5ZM8.5 1.59375C4.68496 1.59375 1.59375 4.68496 1.59375 8.5C1.59375 12.315 4.68496 15.4062 8.5 15.4062C12.315 15.4062 15.4062 12.315 15.4062 8.5C15.4062 4.68496 12.315 1.59375 8.5 1.59375Z" fill="white"/>
</svg>
