<svg width="18" height="17" viewBox="0 0 18 17" fill="none" xmlns="http://www.w3.org/2000/svg">
<path d="M11.8125 13.488C9.94894 13.488 8.4375 11.9135 8.4375 9.97079C8.4375 8.02868 9.94894 6.45354 11.8125 6.45354C13.6761 6.45354 15.1875 8.02868 15.1875 9.97079C15.1875 11.9135 13.6761 13.488 11.8125 13.488ZM6.1875 8.21216H2.8125C2.50144 8.21216 2.25 7.95013 2.25 7.62596C2.25 7.30178 2.50144 7.03975 2.8125 7.03975H6.1875C6.49856 7.03975 6.75 7.30178 6.75 7.62596C6.75 7.95013 6.49856 8.21216 6.1875 8.21216ZM6.1875 10.557H2.8125C2.50144 10.557 2.25 10.295 2.25 9.97079C2.25 9.64661 2.50144 9.38458 2.8125 9.38458H6.1875C6.49856 9.38458 6.75 9.64661 6.75 9.97079C6.75 10.295 6.49856 10.557 6.1875 10.557ZM6.1875 12.9018H2.8125C2.50144 12.9018 2.25 12.6398 2.25 12.3156C2.25 11.992 2.50144 11.7294 2.8125 11.7294H6.1875C6.49856 11.7294 6.75 11.992 6.75 12.3156C6.75 12.6398 6.49856 12.9018 6.1875 12.9018ZM15.75 3.52251H14.5688L8.64338 0.0756126C8.3745 -0.0803184 8.03025 0.0128883 7.875 0.281957C7.71975 0.551026 7.812 0.895129 8.08088 1.05047L12.3609 3.52251H2.25C1.00744 3.52251 0 4.5724 0 5.86734V14.0742C0 15.3692 1.00744 16.4191 2.25 16.4191H15.75C16.9926 16.4191 18 15.3692 18 14.0742V5.86734C18 4.5724 16.9926 3.52251 15.75 3.52251ZM11.8125 7.62596C10.5699 7.62596 9.5625 8.67585 9.5625 9.97079C9.5625 11.2657 10.5699 12.3156 11.8125 12.3156C13.0551 12.3156 14.0625 11.2657 14.0625 9.97079C14.0625 8.67585 13.0551 7.62596 11.8125 7.62596Z" fill="white"/>
</svg>
