<svg width="59" height="81" viewBox="0 0 59 81" fill="none" xmlns="http://www.w3.org/2000/svg">
<path fill-rule="evenodd" clip-rule="evenodd" d="M8.53497 38.7996C8.53497 38.7996 27.6315 29.2246 33.9394 9.00085C33.9394 9.00085 37.4238 34.3278 51.5497 44.3279C51.5497 44.3279 33.9403 51.5796 26.2409 73.8505C26.2409 73.8505 24.8962 50.7179 8.53497 38.7996Z" fill="#F2DB5F"/>
<path fill-rule="evenodd" clip-rule="evenodd" d="M0 11.7361C0 11.7361 7.52109 7.96504 10.0054 0C10.0054 0 11.3777 9.97492 16.9412 13.9134C16.9412 13.9134 10.0058 16.7695 6.97339 25.5408C6.97339 25.5408 6.4438 16.4301 0 11.7361Z" fill="#F2DB5F"/>
<path fill-rule="evenodd" clip-rule="evenodd" d="M0 66.5169C0 66.5169 7.52109 62.7459 10.0054 54.7808C10.0054 54.7808 11.3777 64.7557 16.9412 68.6942C16.9412 68.6942 10.0058 71.5503 6.97339 80.3216C6.97339 80.3216 6.4438 71.2109 0 66.5169Z" fill="#F2DB5F"/>
<path fill-rule="evenodd" clip-rule="evenodd" d="M45.1765 11.966C45.1765 11.966 51.0262 9.03295 52.9585 2.83792C52.9585 2.83792 54.0259 10.5962 58.353 13.6595C58.353 13.6595 52.9588 15.8808 50.6003 22.703C50.6003 22.703 50.1884 15.6169 45.1765 11.966Z" fill="#F2DB5F"/>
</svg>
