<svg width="18" height="14" viewBox="0 0 18 14" fill="none" xmlns="http://www.w3.org/2000/svg">
    <path d="M15.2745 7L17.7797 4.56575C18.0498 4.30325 18.075 3.90133 17.8361 3.66858C17.5966 3.43642 17.1829 3.46092 16.9128 3.72342L14.4077 6.15767L11.9025 3.72342C11.6324 3.46092 11.2188 3.43642 10.9792 3.66858C10.7403 3.90133 10.7655 4.30325 11.0357 4.56575L13.5408 7L11.0357 9.43425C10.7655 9.69675 10.7403 10.0987 10.9792 10.3314C11.2188 10.5636 11.6324 10.5391 11.9025 10.2766L14.4077 7.84233L16.9128 10.2766C17.1829 10.5391 17.5966 10.5636 17.8361 10.3314C18.075 10.0987 18.0498 9.69675 17.7797 9.43425L15.2745 7ZM8.40447 0L4.20224 2.72242V11.2776L8.40447 14C9.06722 14 9.60511 13.4773 9.60511 12.8333V1.16667C9.60511 0.522667 9.06722 0 8.40447 0ZM0 4.66667V9.33333C0 9.97733 0.537886 10.5 1.20064 10.5H3.0016V3.5H1.20064C0.537886 3.5 0 4.02267 0 4.66667Z" fill="white"/>
</svg>
