<?xml version="1.0" encoding="UTF-8"?>
<svg width="20px" height="20px" viewBox="0 0 20 20" version="1.1" xmlns="http://www.w3.org/2000/svg" xmlns:xlink="http://www.w3.org/1999/xlink">
    <title>icon-home</title>
    <g id="icon-home" stroke="none" stroke-width="1" fill="none" fill-rule="evenodd">
        <path d="M10.368359,2.14380099 L18.8348746,9.78507938 C19.0602863,9.98852004 19.0780973,10.3361736 18.8746566,10.5615853 C18.7704101,10.6770902 18.6221041,10.7430161 18.4665126,10.7430161 L16.597,10.743 L16.5975096,16.9004146 C16.5975096,17.5076988 16.1052084,18 15.4979241,18 L12.1991679,18 L12.1991679,12.4177047 L7.80082622,12.4177047 L7.80082622,18 L4.50206997,18 C3.89478571,18 3.40248455,17.5076988 3.40248455,16.9004146 L3.402,10.743 L1.53348147,10.7430161 C1.22983934,10.7430161 0.983688759,10.4968655 0.983688759,10.1932234 C0.983688759,10.0376319 1.04961468,9.88932591 1.16511955,9.78507938 L9.63163514,2.14380099 C9.84089699,1.95493604 10.1590971,1.95493604 10.368359,2.14380099 Z" id="Combined-Shape" fill="#FFFFFF"></path>
    </g>
</svg>