<?xml version="1.0" encoding="UTF-8"?>
<svg width="50px" height="50px" viewBox="0 0 50 50" version="1.1" xmlns="http://www.w3.org/2000/svg" xmlns:xlink="http://www.w3.org/1999/xlink">
    <title>icon-room-image</title>
    <g id="icon-room-image" stroke="none" stroke-width="1" fill="none" fill-rule="evenodd">
        <g id="image" transform="translate(3.000000, 3.000000)" fill="#FFFFFF" fill-rule="nonzero">
            <path d="M42.2008889,43.1786667 L2.62044444,43.1786667 C1.54097778,43.1786667 0.821333333,42.4590222 0.821333333,41.3795556 L0.821333333,1.79911111 C0.821333333,0.719644444 1.54097778,0 2.62044444,0 L42.2008889,0 C43.2803556,0 44,0.719644444 44,1.79911111 L44,41.3795556 C44,42.4590222 43.2803556,43.1786667 42.2008889,43.1786667 Z M4.41955556,39.5804444 L40.4017778,39.5804444 L40.4017778,3.59822222 L4.41955556,3.59822222 L4.41955556,39.5804444 Z" id="Shape"></path>
            <path d="M42.2008889,34.1831111 L2.62044444,34.1831111 C1.54097778,34.1831111 0.821333333,33.4634667 0.821333333,32.384 C0.821333333,31.3045333 1.54097778,30.5848889 2.62044444,30.5848889 L42.2008889,30.5848889 C43.2803556,30.5848889 44,31.3045333 44,32.384 C44,33.4634667 43.2803556,34.1831111 42.2008889,34.1831111 Z" id="Path"></path>
            <path d="M2.62044444,30.5848889 C2.08071111,30.5848889 1.72088889,30.4049778 1.36106667,30.0451556 C0.641422222,29.3255111 0.641422222,28.2460444 1.36106667,27.5264 L12.1557333,16.7317333 C12.8753778,16.0120889 13.9548444,16.0120889 14.6744889,16.7317333 C15.3941333,17.4513778 15.3941333,18.5308444 14.6744889,19.2504889 L3.87982222,30.0451556 C3.52,30.4049778 3.16017778,30.5848889 2.62044444,30.5848889 Z" id="Path"></path>
            <path d="M20.6115556,26.9866667 C20.0718222,26.9866667 19.712,26.8067556 19.3521778,26.4469333 L12.1557333,19.2504889 C11.4360889,18.5308444 11.4360889,17.4513778 12.1557333,16.7317333 C12.8753778,16.0120889 13.9548444,16.0120889 14.6744889,16.7317333 L21.8709333,23.9281778 C22.5905778,24.6478222 22.5905778,25.7272889 21.8709333,26.4469333 C21.5111111,26.8067556 21.1512889,26.9866667 20.6115556,26.9866667 Z" id="Path"></path>
            <path d="M17.0133333,23.3884444 C16.4736,23.3884444 16.1137778,23.2085333 15.7539556,22.8487111 C15.0343111,22.1290667 15.0343111,21.0496 15.7539556,20.3299556 L24.7495111,11.3344 C25.4691556,10.6147556 26.5486222,10.6147556 27.2682667,11.3344 C27.9879111,12.0540444 27.9879111,13.1335111 27.2682667,13.8531556 L18.2727111,22.8487111 C17.9128889,23.2085333 17.5530667,23.3884444 17.0133333,23.3884444 Z" id="Path"></path>
            <path d="M41.3013333,29.6853333 C40.7616,29.6853333 40.4017778,29.5054222 40.0419556,29.1456 L24.7495111,13.8531556 C24.0298667,13.1335111 24.0298667,12.0540444 24.7495111,11.3344 C25.4691556,10.6147556 26.5486222,10.6147556 27.2682667,11.3344 L42.5607111,26.6268444 C43.2803556,27.3464889 43.2803556,28.4259556 42.5607111,29.1456 C42.2008889,29.5054222 41.8410667,29.6853333 41.3013333,29.6853333 Z" id="Path"></path>
            <path d="M6.21866667,12.5937778 C4.41955556,12.5937778 2.80035556,11.8741333 1.36106667,10.7946667 C0.641422222,10.0750222 0.641422222,8.99555556 1.18115556,8.27591111 C1.9008,7.55626667 2.98026667,7.55626667 3.69991111,8.096 C4.41955556,8.63573333 5.31911111,8.99555556 6.21866667,8.99555556 C8.19768889,8.99555556 9.81688889,7.37635556 9.81688889,5.39733333 C9.81688889,4.49777778 9.45706667,3.59822222 8.91733333,3.05848889 C8.19768889,2.33884444 8.3776,1.25937778 9.09724444,0.539733333 C9.81688889,-0.179911111 10.8963556,-0.179911111 11.616,0.539733333 C12.6954667,1.97902222 13.4151111,3.59822222 13.4151111,5.39733333 C13.4151111,9.35537778 10.1767111,12.5937778 6.21866667,12.5937778 Z" id="Path"></path>
        </g>
    </g>
</svg>