<svg width="204" height="49" viewBox="0 0 204 49" fill="none" xmlns="http://www.w3.org/2000/svg">
<g clip-path="url(#clip0_8:38)">
<path d="M100.415 21.7662C98.9595 24.7864 97.972 25.932 95.5292 27.1296C97.5562 28.9001 98.2318 30.254 98.8555 33.5345C100.311 30.5143 101.298 29.3688 103.741 28.1711C101.714 26.4006 101.038 25.0468 100.415 21.7662Z" stroke="white" stroke-width="2" stroke-miterlimit="10" stroke-linecap="round"/>
<path d="M45.8935 20.152C46.4652 20.152 47.0369 20.2561 47.5567 20.4644C48.0245 20.7248 48.4403 21.0372 48.856 21.4017C49.1679 21.6621 49.4797 21.9224 49.8436 22.0786C49.9995 22.2349 50.2074 22.339 50.4673 22.339H55.2489C55.5608 22.339 55.8206 22.1828 56.0805 21.9745C56.3404 21.7662 56.4963 21.5058 56.4963 21.1413L56.5483 20.7768C56.4963 19.8395 56.1325 18.9543 55.5088 18.2253C54.6252 17.2359 53.5338 16.4548 52.2864 15.9862C50.6232 15.3613 48.856 15.0489 47.0889 15.101C45.0619 15.0489 43.0869 15.4134 41.2158 16.1424C39.6566 16.7673 38.2013 17.7046 37.0578 18.9022C36.0703 19.8916 35.3947 21.1413 35.0828 22.4952C34.9789 23.0159 34.8749 23.5367 34.8749 24.0574C34.8749 26.9734 37.0578 28.9522 41.4237 29.8895C42.879 30.1498 44.2823 30.5143 45.6856 31.0871C46.4132 31.4517 46.7771 31.9203 46.7771 32.4931C46.7771 33.2742 46.4132 33.9511 45.7376 34.3677C45.0099 34.8363 44.1264 35.0446 43.2428 35.0446C42.6191 35.0967 41.9434 34.9405 41.3717 34.6801C40.852 34.4198 40.3322 34.0553 39.9164 33.6387C39.3967 33.2221 39.1888 33.0138 39.1368 33.0138C39.0329 32.8576 38.8769 32.7535 38.669 32.7535H33.3157C33.0038 32.7535 32.692 32.8576 32.4841 33.0659C32.2242 33.2742 32.0683 33.5866 32.0163 33.899L31.9643 34.3677C32.0163 35.305 32.3801 36.1902 32.9518 36.9192C33.7834 37.9607 34.9269 38.7418 36.1743 39.2104C37.9934 39.8874 39.9164 40.1998 41.8915 40.1477C45.5297 40.1477 48.4922 39.4708 50.8311 38.0648C53.1699 36.6589 54.5732 34.8363 55.093 32.5972C55.1969 32.1807 55.2489 31.712 55.2489 31.2434C55.2489 29.7853 54.6252 28.3794 53.5338 27.4421C52.3903 26.4006 50.5712 25.6196 48.0764 25.1509C46.6731 24.9426 45.2698 24.526 43.9185 24.0053C43.1908 23.6408 42.827 23.2242 42.827 22.7035C42.827 22.0266 43.0869 21.3496 43.6586 20.881C44.2823 20.3603 45.1139 20.0999 45.8935 20.152Z" stroke="white" stroke-width="2" stroke-miterlimit="10" stroke-linecap="round"/>
<path d="M76.5065 15.101C75.0512 15.0489 73.6479 15.3613 72.3485 15.9341C71.1531 16.559 70.0097 17.3921 69.0741 18.3815L69.386 16.7152C69.438 16.6111 69.438 16.5069 69.438 16.4548C69.438 16.2465 69.386 16.0383 69.2301 15.882C69.0222 15.6738 68.7623 15.5175 68.4504 15.5696H63.253C62.9411 15.5696 62.5773 15.6738 62.3175 15.882C62.0576 16.0903 61.8497 16.4028 61.7977 16.7152L55.3009 47.2816C55.2489 47.3858 55.2489 47.4378 55.2489 47.542C55.2489 48.0106 55.6127 48.4272 56.0805 48.4272C56.1325 48.4272 56.1325 48.4272 56.1845 48.4272H61.8497C62.1615 48.4272 62.4734 48.3231 62.7332 48.1148C62.9931 47.9065 63.201 47.5941 63.253 47.2816L65.4879 36.9713C66.0076 38.0128 66.8392 38.7938 67.8787 39.2625C69.1261 39.8353 70.5294 40.0956 71.8808 40.0956C74.6874 40.1998 77.3901 39.1063 79.3651 37.1796C81.3401 35.2529 82.7954 32.5972 83.679 29.2125C83.9908 28.1711 84.1987 27.0776 84.3547 25.9841C84.5106 25.0988 84.5625 24.2136 84.5625 23.2763C84.5625 20.6727 83.8349 18.6419 82.4316 17.2359C81.1322 15.83 79.1052 15.101 76.5065 15.101ZM76.2466 26.1923C76.1427 27.1817 75.9348 28.119 75.6229 29.0563C74.5834 32.2848 72.8163 33.899 70.3215 33.899C69.386 34.0032 68.4504 33.6387 67.7748 33.0138C67.2031 32.3369 66.9432 31.5037 66.9432 30.6706C66.9432 30.3061 66.9432 29.8895 67.0471 29.525C67.255 28.4315 67.4629 27.2338 67.7748 26.0361C68.0866 24.7343 68.7103 23.5887 69.6459 22.6514C70.5814 21.7662 71.8808 21.2455 73.1801 21.2976C74.3236 21.2976 75.1032 21.61 75.571 22.1828C76.0907 22.9118 76.2986 23.8491 76.2466 24.7343C76.3506 24.9947 76.3506 25.5154 76.2466 26.1923Z" stroke="white" stroke-width="2" stroke-miterlimit="10" stroke-linecap="round"/>
<path d="M113.616 15.5696H108.419C108.107 15.5696 107.795 15.6738 107.535 15.882C107.275 16.0903 107.068 16.4028 107.016 16.7152L106.808 17.9129C106.184 17.0276 105.3 16.2986 104.313 15.83C103.014 15.2572 101.558 14.9968 100.155 15.101C97.0364 15.101 94.4897 16.0383 92.4627 17.9649C90.4876 19.8916 89.0324 22.5473 88.1488 25.932L87.4731 29.2125C87.3172 30.0978 87.2652 30.983 87.2652 31.9203C87.2652 34.5239 87.9929 36.5547 89.3962 37.9607C90.7995 39.3666 92.7745 40.0956 95.3732 40.0956C96.7766 40.1477 98.1799 39.8874 99.4792 39.3146C100.675 38.7418 101.766 37.9607 102.754 37.0234L102.494 38.4814C102.442 38.7418 102.494 39.0542 102.65 39.3146C102.806 39.5749 103.117 39.6791 103.429 39.6791H108.679C108.991 39.6791 109.302 39.5749 109.562 39.3666C109.822 39.1583 110.03 38.8459 110.082 38.5335L114.656 16.7673C114.708 16.6631 114.708 16.6111 114.708 16.5069C114.708 16.2986 114.656 16.0903 114.5 15.9341C114.188 15.6738 113.876 15.5175 113.616 15.5696Z" stroke="white" stroke-width="2" stroke-miterlimit="10" stroke-linecap="round"/>
<path d="M137.681 16.7152C137.732 16.6111 137.732 16.559 137.732 16.4548C137.732 16.2465 137.681 16.0383 137.525 15.882C137.317 15.6738 137.057 15.5696 136.797 15.5696H134.198C131.184 15.5696 128.845 16.559 127.234 18.5898L127.597 16.7152C127.649 16.6111 127.649 16.559 127.649 16.4548C127.649 16.2465 127.597 16.0383 127.442 15.882C127.234 15.6738 126.974 15.5175 126.662 15.5696H121.361C121.049 15.5696 120.685 15.6738 120.425 15.882C120.165 16.0903 119.957 16.4028 119.905 16.7152L115.279 38.4814C115.228 38.7938 115.279 39.1063 115.487 39.3146C115.695 39.5229 115.955 39.6791 116.267 39.627H121.984C122.296 39.627 122.66 39.5229 122.92 39.3146C123.18 39.1063 123.388 38.7938 123.439 38.4814L125.934 26.6089C126.142 25.4633 126.714 24.4219 127.597 23.6408C128.481 22.9118 129.624 22.5473 130.768 22.5994H135.186C135.498 22.5994 135.861 22.4952 136.121 22.2869C136.381 22.0786 136.589 21.7662 136.641 21.4538L137.681 16.7152Z" stroke="white" stroke-width="2" stroke-miterlimit="10" stroke-linecap="round"/>
<path d="M153.533 26.8693L163.72 17.3401C164.084 17.0797 164.291 16.7152 164.343 16.2986C164.343 16.0903 164.239 15.9341 164.084 15.7779C163.928 15.6217 163.668 15.5696 163.46 15.5696H156.859C156.599 15.5696 156.339 15.6217 156.131 15.6738C155.924 15.7779 155.716 15.882 155.508 16.0383C155.3 16.1945 155.196 16.2986 155.092 16.3507L147.348 23.3284L150.622 7.91498C150.622 7.86291 150.674 7.75877 150.674 7.70669C150.674 7.49841 150.622 7.23804 150.414 7.08183C150.206 6.87354 149.946 6.76939 149.635 6.76939H144.281C143.606 6.76939 143.034 7.23804 142.878 7.91498L136.381 38.4814C136.329 38.7938 136.381 39.1063 136.589 39.3146C136.797 39.5229 137.057 39.6791 137.369 39.627H142.67C143.346 39.627 143.917 39.1583 144.073 38.4814L145.944 29.4729L151.766 38.9501C152.077 39.4187 152.597 39.7311 153.169 39.6791H159.25C159.562 39.6791 159.874 39.5749 160.134 39.3666C160.341 39.1583 160.445 38.898 160.445 38.6376C160.445 38.4293 160.393 38.221 160.237 38.0128L153.533 26.8693Z" stroke="white" stroke-width="2" stroke-miterlimit="10" stroke-linecap="round"/>
<path d="M177.025 6.76939H171.568C170.892 6.76939 170.321 7.23804 170.165 7.91498L163.668 38.4814C163.616 38.7938 163.668 39.1063 163.876 39.3146C164.084 39.5229 164.343 39.6791 164.655 39.627H170.113C170.424 39.627 170.736 39.5229 170.996 39.3146C171.256 39.1063 171.464 38.7938 171.516 38.4814L178.013 7.91498C178.065 7.81084 178.065 7.70669 178.065 7.65462C178.065 7.44633 178.013 7.23804 177.857 7.08183C177.597 6.87354 177.285 6.76939 177.025 6.76939Z" stroke="white" stroke-width="2" stroke-miterlimit="10" stroke-linecap="round"/>
<path d="M200.985 17.5484C199.374 15.9341 196.879 15.101 193.605 15.101C190.227 14.9968 186.952 16.0903 184.302 18.1732C181.703 20.2561 179.988 23.068 179.104 26.7131C179.052 26.7651 178.948 27.3379 178.74 28.3273C178.532 29.3688 178.429 30.4102 178.429 31.4516C178.429 34.3156 179.26 36.4506 180.975 37.9086C182.69 39.3666 185.133 40.0956 188.304 40.0956C190.435 40.1477 192.566 39.7311 194.593 38.9501C196.256 38.3252 197.763 37.44 199.114 36.2423C200.258 35.2009 200.933 34.2636 201.141 33.4825C201.193 33.3783 201.193 33.2742 201.193 33.17C201.193 33.0138 201.141 32.8576 201.037 32.7535C200.882 32.5452 200.622 32.441 200.362 32.4931H194.645C194.333 32.4931 194.073 32.5452 193.813 32.6493C193.501 32.8055 193.293 33.0138 193.033 33.2742C192.514 33.7428 191.994 34.1073 191.422 34.4718C190.798 34.8363 190.123 34.9926 189.447 34.9405C188.616 34.9926 187.784 34.6801 187.212 34.0032C186.692 33.2742 186.381 32.3889 186.433 31.5037C186.433 31.0351 186.485 30.5143 186.589 30.0457L186.692 29.7333H201.505C201.817 29.7333 202.129 29.6291 202.389 29.4208C202.649 29.2125 202.857 28.9001 202.961 28.5877L203.168 27.4942C203.428 26.4006 203.532 25.255 203.532 24.1095C203.48 21.3496 202.649 19.1626 200.985 17.5484ZM195.476 25.0468L195.424 25.1509H187.628L187.68 25.0468C187.888 23.6929 188.512 22.4431 189.447 21.4538C190.279 20.5685 191.422 20.0999 192.566 20.152C193.449 20.0999 194.281 20.4123 194.904 21.0372C195.476 21.7141 195.736 22.5994 195.684 23.4846C195.632 24.0053 195.58 24.526 195.476 25.0468Z" stroke="white" stroke-width="2" stroke-miterlimit="10" stroke-linecap="round"/>
<path d="M31.1847 26.7651C27.2866 23.3284 24.9998 20.4644 23.3366 16.2465C22.2451 13.2784 21.4655 10.2582 20.9457 7.18597C16.5279 16.5069 13.4614 19.8395 6.08102 23.5367C12.266 29.0042 14.3969 33.0138 16.32 43.1158C20.7898 33.847 23.8043 30.4623 31.1847 26.7651Z" stroke="white" stroke-width="2" stroke-miterlimit="10" stroke-linecap="round"/>
<path d="M5.14548 16.4548C6.96458 12.6015 8.21197 11.2476 11.2785 9.73751C8.73172 7.49841 7.84815 5.83209 7.06853 1.66631C5.24942 5.51966 4.00204 6.87354 0.935539 8.43571C3.48229 10.6227 4.36586 12.2891 5.14548 16.4548Z" stroke="white" stroke-width="2" stroke-miterlimit="10" stroke-linecap="round"/>
<path d="M28.1182 14.3719C29.4176 11.6121 30.3531 10.6227 32.536 9.52922C30.7169 7.91498 30.0932 6.71732 29.5215 3.7492C28.2222 6.50903 27.2866 7.49841 25.1557 8.59192C26.9228 10.2062 27.5465 11.4038 28.1182 14.3719Z" stroke="white" stroke-width="2" stroke-miterlimit="10" stroke-linecap="round"/>
<path d="M7.06853 32.2327C5.24942 36.0861 4.00204 37.44 0.935539 39.0021C3.48229 41.2412 4.36586 42.9075 5.14548 47.0733C6.96458 43.22 8.21197 41.8661 11.2785 40.3039C8.73172 38.0648 7.84815 36.3985 7.06853 32.2327Z" stroke="white" stroke-width="2" stroke-miterlimit="10" stroke-linecap="round"/>
</g>
<defs>
<clipPath id="clip0_8:38">
<rect width="204" height="49" fill="white"/>
</clipPath>
</defs>
</svg>
