<svg width="24" height="24" viewBox="0 0 24 24" fill="none" xmlns="http://www.w3.org/2000/svg">
    <path d="M12 21C7 21 3 17 3 12C3 7 7 3 12 3C17 3 21 7 21 12C21 17 17 21 12 21ZM12 5C8.1 5 5 8.1 5 12C5 15.9 8.1 19 12 19C15.9 19 19 15.9 19 12C19 8.1 15.9 5 12 5ZM12 16C9.8 16 8 14.2 8 12C8 9.8 9.8 8 12 8C14.2 8 16 9.8 16 12C16 14.2 14.2 16 12 16ZM12 10C10.9 10 10 10.9 10 12C10 13.1 10.9 14 12 14C13.1 14 14 13.1 14 12C14 10.9 13.1 10 12 10Z"
          fill="white"/>
    <path d="M12 24C11.4 24 11 23.6 11 23V15C11 14.4 11.4 14 12 14C12.6 14 13 14.4 13 15V23C13 23.6 12.6 24 12 24Z"
          fill="white"/>
    <path d="M12 10C11.4 10 11 9.6 11 9V1C11 0.4 11.4 0 12 0C12.6 0 13 0.4 13 1V9C13 9.6 12.6 10 12 10Z"
          fill="white"/>
    <path d="M9 13H1C0.4 13 0 12.6 0 12C0 11.4 0.4 11 1 11H9C9.6 11 10 11.4 10 12C10 12.6 9.6 13 9 13Z"
          fill="white"/>
    <path d="M23 13H15C14.4 13 14 12.6 14 12C14 11.4 14.4 11 15 11H23C23.6 11 24 11.4 24 12C24 12.6 23.6 13 23 13Z"
          fill="white"/>
</svg>
