<svg width="16" height="16" viewBox="0 0 16 16" fill="none" xmlns="http://www.w3.org/2000/svg">
    <g opacity="1">
        <path fill-rule="evenodd" clip-rule="evenodd"
              d="M7.99998 1.60001C8.66272 1.60001 9.19998 2.13726 9.19998 2.80001V6.80001H13.2C13.8627 6.80001 14.4 7.33726 14.4 8.00001C14.4 8.66275 13.8627 9.20001 13.2 9.20001H9.19998V13.2C9.19998 13.8627 8.66272 14.4 7.99998 14.4C7.33723 14.4 6.79998 13.8627 6.79998 13.2V9.20001H2.79998C2.13723 9.20001 1.59998 8.66275 1.59998 8.00001C1.59998 7.33726 2.13723 6.80001 2.79998 6.80001H6.79998V2.80001C6.79998 2.13726 7.33723 1.60001 7.99998 1.60001Z"
              fill="white"/>
    </g>
</svg>
